<svg preserveAspectRatio="none" width="100%" height="100%" overflow="visible" style="display: block;" viewBox="0 0 92.6794 79.7854" fill="none" xmlns="http://www.w3.org/2000/svg">
<g id="Group 34">
<path id="Vector 19" d="M88.0404 29.8925C88.0373 26.9392 88.0307 23.9197 88.0237 20.8645L88.8488 22.71C86.7694 20.8582 84.6678 18.9868 82.563 17.1098L84.2261 17.7452C78.6317 17.7544 73.0126 17.7553 67.5507 17.729L66.3367 17.7487L65.5534 16.7177C64.6605 15.4895 63.7765 14.2699 62.9041 13.0616C62.0043 11.8157 62.2018 11.8009 61.9645 11.4403C61.3161 10.4541 60.7364 9.99937 60.2396 9.29829C59.458 8.19584 58.6897 7.11871 57.9275 6.0528L58.626 6.68131C57.3071 5.8895 56.0021 5.10855 54.6913 4.32215L55.8283 4.62954C54.6341 4.61485 53.4352 4.59908 52.2195 4.58022C47.9989 4.51489 49.9954 3.99295 48.5289 3.8658C45.6635 3.61679 48.1007 4.2974 46.9745 4.45021C43.6896 4.40939 40.3757 4.33565 37.085 4.261C37.8883 4.19745 38.6918 4.13526 39.504 4.07637C38.0697 4.06237 36.017 3.95731 38.4188 3.77943C37.8879 3.73044 37.3924 3.67315 36.8468 3.62532C36.8171 3.67459 36.6929 3.71485 36.5113 3.74889L36.9944 3.66129C36.3568 4.04693 34.8085 4.6662 34.6757 4.84175C34.5104 5.06073 35.8353 4.5278 35.8316 4.54291C35.82 4.64008 34.5577 5.10194 33.192 5.57407L34.1435 4.76026C33.3212 6.13074 32.4101 7.59212 32.2917 7.77992C31.695 8.72524 31.9092 7.72181 31.459 8.55847C30.6846 9.99736 31.7644 9.3575 29.9526 10.8738C29.7548 11.7725 29.5949 11.7704 29.0305 12.731C28.9563 12.8575 29.1484 12.8354 29.1202 12.8936C28.3915 14.4186 28.7762 13.1472 28.7582 13.1471C28.4499 13.1488 27.663 14.7826 27.4531 15.1019C27.306 15.3259 27.161 15.5466 27.0181 15.7645L26.7354 16.2843L26.1098 16.2945C25.3697 16.2455 24.658 16.1991 23.9634 16.1556L23.3169 16.1661L23.1014 15.5253C22.7835 14.2565 22.4743 13.0479 22.15 11.828L22.8077 12.309C20.7604 12.2103 18.6724 12.1408 16.2205 12.1048C15.552 12.0952 14.0458 12.1322 12.7364 12.1518L13.2507 11.759C13.0448 12.5611 12.8529 13.2854 12.7283 13.6753C12.411 14.6682 12.3721 14.0784 12.1394 14.5799C12.2003 14.8504 12.2309 15.1093 12.2253 15.3818L12.1334 15.7418L11.7458 15.7481C11.0672 15.9185 10.2399 15.8834 8.82843 15.6635C8.09816 16.0018 8.19208 15.7289 6.79305 15.7966C6.42281 15.8144 5.96514 15.8676 5.47186 15.9207L5.96258 15.7067C5.32607 16.5597 4.57792 17.5326 3.81026 18.0126C4.83324 16.9572 4.60794 16.9557 5.66005 15.6752C5.68407 15.646 5.72477 15.599 5.77959 15.5368L5.47186 15.671C6.59799 15.6418 11.5528 15.6135 11.1547 15.2915C10.9319 15.1113 9.02869 15.2768 8.95513 15.2436C8.5269 15.05 9.58913 14.812 10.5306 14.8954C10.296 14.9345 10.0133 14.9741 9.76107 15.0132C11.7346 15.2391 10.5998 14.4445 11.7458 14.9977L11.5014 15.1844C11.5611 15.1157 11.6306 15.0376 11.7112 14.9483C11.8596 14.7828 11.9396 14.8845 12.1279 14.5963C12.1034 14.5198 11.8932 14.8779 11.9653 14.5397C12.039 14.1949 12.4138 13.6041 12.2724 13.4622C12.0679 13.252 11.7801 14.6855 11.737 14.7876C11.7382 14.7891 11.7393 14.7906 11.7405 14.7922C11.3557 15.6932 11.8743 13.7337 11.8767 13.634C11.8898 12.9877 11.6604 13.3683 11.7825 12.4264C11.8128 12.1931 11.9056 11.8146 12.01 11.4207L12.1737 10.8567L12.7364 10.8659C13.2676 10.8621 13.8292 10.8702 14.1147 10.8566C14.616 10.8321 13.8361 10.7126 14.1734 10.6869C14.5106 10.6613 14.9306 10.7521 15.3265 10.7223C15.496 10.7092 15.4873 10.5759 15.5694 10.5713C16.4491 10.52 15.872 10.7972 16.6698 10.7803C17.1866 10.7691 18.9212 10.5106 17.7256 10.4337C18.3003 10.4068 18.8607 10.3872 19.4325 10.3662C19.0718 10.3266 18.6992 10.2996 18.3473 10.253C19.4233 10.3165 19.9101 10.0884 20.5845 10.0714C21.2591 10.0545 21.8638 10.3282 22.6058 10.1947C22.6873 10.1801 22.7541 10.1666 22.8077 10.1541L23.9022 10.1719L24.2034 11.1747C24.335 11.3956 24.3569 11.3451 24.3148 11.1392L23.9895 10.0565L22.8077 10.0372C22.1925 9.97177 20.1257 10.0271 19.7809 9.99114C19.5911 9.9712 20.3198 9.75679 20.432 9.75066C20.9304 9.72385 21.52 9.87717 21.9043 9.87029C22.231 9.8642 22.5277 9.84813 22.8077 9.82663L24.1469 9.8484L24.5155 11.0754C24.8537 11.9109 25.1933 12.5658 25.5261 13.5089C25.6552 13.8748 25.7865 14.2486 25.9197 14.6286L23.9634 13.1981C24.6619 13.1779 25.38 13.1584 26.1098 13.1397L24.2717 14.2122C26.005 10.9536 27.9017 7.44859 29.4588 4.62502C29.9012 3.82295 30.3111 3.24617 30.6439 2.78224L31.0646 2.06539L31.7805 1.81013C32.1785 1.70812 32.5084 1.6253 32.7844 1.51892C34.2877 0.939367 34.4405 0.680708 35.6928 0.190317L36.5113 0.0418947C36.5468 0.0413795 36.5832 0.0409827 36.6204 0.0407109C38.7674 0.0243797 41.792 0.197474 43.5841 0.234803C44.8247 0.260465 45.9479 0.0685868 46.2706 0.0639043C49.2921 0.017535 52.7543 0.00436878 55.8283 0L56.5083 0.0110548L57.024 0.323251C58.3109 1.0715 59.5182 1.77566 60.5658 2.38591C60.7141 2.47228 60.8537 2.556 60.9852 2.63693L61.7014 3.28137C62.5134 4.44373 62.791 5.11706 62.9882 5.37598C63.9281 6.61054 63.8305 6.16615 64.56 7.19092C64.9542 7.74443 64.8867 7.95161 64.935 8.02897C65.3619 8.70887 65.6426 8.70058 66.0185 9.19964C67.1948 10.7612 68.3014 12.3255 69.4023 13.8912L67.5507 12.9537C69.1539 12.9868 70.7555 13.0237 72.3772 13.0338C72.6353 13.0356 72.6124 13.1379 72.7796 13.1327C73.4975 13.1076 73.1638 12.9463 73.914 12.9346C75.4744 12.9096 77.0767 12.9362 78.7309 12.9566C78.8948 12.9586 78.9684 13.0902 79.3433 13.0903C79.7187 13.0903 80.0033 12.9655 80.5927 12.9725C81.7953 12.9866 82.9855 13.0807 84.2261 13.1251L85.0726 13.1389L85.6436 13.6667C85.8945 13.908 86.151 14.1489 86.4159 14.3884C86.6162 14.5692 86.9711 14.6739 87.2716 14.9451C88.2146 15.7959 89.5199 17.1569 90.3273 17.8864C90.858 18.3655 91.3832 18.8342 91.9041 19.2953L92.6204 19.9575L92.6057 20.8645C92.6204 23.662 92.6784 26.3254 92.6794 29.0337C92.6793 29.8284 92.5324 30.5325 92.5289 30.9459C92.5214 31.878 92.6602 31.1748 92.6608 32.1191C92.6643 39.8329 92.6012 47.5763 92.6122 55.381C92.614 56.6713 92.6404 58.0795 92.6675 59.4987L92.6638 59.6245C92.5877 61.5756 92.5116 63.5474 92.3892 65.2585C92.3008 66.4872 92.0962 66.6992 92.0439 67.5687C91.9515 69.1198 92.1807 69.4154 92.11 71.0532C92.0721 71.927 91.9111 72.8791 91.7894 73.8205L91.727 74.6588L91.1725 75.1956C90.8171 75.5041 90.4707 75.8171 90.1553 76.1396C89.2037 77.1127 88.9283 77.7254 87.8431 78.8511C87.7982 78.8976 87.7521 78.9448 87.705 78.9927L86.9778 79.6967L86.0422 79.6815C84.7728 79.6917 83.0842 79.5949 81.7527 79.6115C68.9062 79.7724 56.2561 79.8704 43.3304 79.6838C38.7695 79.6179 33.7093 79.6521 28.9959 79.4177C28.5532 79.3955 29.2304 79.1651 27.8111 79.2135C27.0485 79.2398 25.9839 79.4383 24.2213 79.4482C18.4457 79.4803 12.458 79.3658 6.46248 79.2706L5.53857 79.2555L4.98898 78.5928C3.69151 77.0296 2.39178 75.467 1.09006 73.9155L0.632321 73.3635L0.642997 72.707C0.673023 69.8636 0.685959 67.0342 0.66394 64.2406C0.618432 58.502 0.377388 52.6884 0.198771 46.9509C-0.0688131 38.3555 -0.196294 29.931 0.683629 22.1854L0.711914 21.8661C1.13327 20.4532 1.58583 19.0705 2.07478 17.7226C2.31034 17.0735 2.81377 17.5382 2.90356 17.9683C2.72168 18.3201 2.52315 18.6399 2.32326 19.0063C2.94569 19.6238 2.77626 19.5043 2.38772 21.3118C2.14818 22.4246 2.61159 21.5843 2.59119 22.1966C2.59113 22.1983 2.59107 22.1999 2.59102 22.2016L2.59246 22.1854C2.70638 22.9819 3.06019 26.6556 2.5835 25.9473C2.66632 26.1761 2.74566 26.3872 2.82673 26.6101C2.89905 29.282 3.01865 31.878 3.15571 34.4912C3.17967 34.9427 3.32956 34.9635 3.35346 35.4297C3.41876 36.682 3.3203 37.6763 3.33546 38.9667C3.34362 39.6677 3.51683 39.765 3.50575 40.683C3.4946 41.6005 3.26078 41.5804 3.5149 42.8322C3.80827 42.0168 3.5954 45.654 3.61348 46.9475C3.61349 46.9486 3.61351 46.9497 3.61354 46.9509C3.6188 47.1528 3.87919 48.6795 3.84907 49.4932C3.81933 50.3143 3.65096 51.5609 3.74653 52.8308C3.79144 53.4262 3.9967 53.7874 4.00837 54.4297C4.01654 54.8814 3.83409 55.424 3.82649 55.9959C3.81891 56.5675 3.96867 57.8046 3.97114 58.0312C3.98106 58.8494 3.85279 57.9468 3.84633 58.5064C3.81716 61.2076 3.74842 64.3461 3.83473 67.0092C3.84519 67.3366 3.99632 66.8836 4.00136 66.9271C4.18678 69.1498 3.98988 67.9634 3.85456 68.5636C3.75727 68.9959 3.77179 71.4593 3.89365 72.707L3.55814 71.8C3.87003 72.0993 4.09755 72.2806 4.15392 72.2428C3.9892 72.5561 4.79547 73.1107 4.96268 73.2909C5.61313 73.9925 5.27501 74.0354 5.94493 74.6817C6.19059 74.919 5.90575 74.2911 6.13931 74.5722C6.61258 75.142 6.89572 75.7948 7.40069 76.5257L6.46248 76.0941C6.65661 76.1144 6.86057 76.129 7.07717 76.1346C7.36754 76.1422 7.46191 76.0045 7.97813 76.0092C8.49495 76.0139 10.6613 76.1823 9.66157 75.892C10.9754 76.1247 11.24 75.9969 12.768 76.0034C13.1551 76.0053 13.6535 76.2272 14.4773 76.1584C14.7559 76.135 14.7477 75.9212 15.1671 75.9194C16.126 75.9148 17.0295 76.1362 18.2465 76.145C20.5225 76.1619 22.9454 76.0062 25.3182 76.0616C25.9631 76.0769 25.8021 76.2919 26.74 76.296C26.8778 76.296 28.0075 76.1101 28.6557 76.1276C29.0458 76.1381 31.0671 76.2687 31.4747 76.2792C32.1489 76.2961 32.2692 76.0881 32.6385 76.1288C33.7061 76.246 32.8496 76.5521 34.1342 76.1334C34.5566 76.3655 35.3073 76.3423 35.5478 76.6281C35.9848 76.3149 36.5515 76.6158 37.399 76.5109C38.2467 76.4059 38.9417 75.7993 39.147 76.452C39.543 76.3726 41.2299 76.2373 41.5144 76.2274C42.3529 76.1994 41.9045 76.3799 42.5374 76.3555C42.6488 76.3515 42.5321 76.228 43.2471 76.2402C43.7164 76.2483 47.1548 76.2559 47.3601 76.2728C49.7027 76.4661 46.0835 76.3953 45.5769 76.5289C45.4875 76.4938 45.399 76.4586 45.3036 76.4239C44.2684 76.3656 44.8578 76.6445 45.3271 76.7092C45.7964 76.774 46.6732 76.6497 47.0633 76.7413C47.2577 76.7872 47.1372 77.1216 46.5495 77.0812C47.1784 77.1842 46.3195 77.293 46.5682 77.3898C46.8417 77.4959 49.6679 77.5286 49.6829 77.3443C49.155 77.3379 48.498 77.3443 47.9643 77.3367C47.2662 77.0165 49.3865 75.9229 51.3311 76.3598C52.7417 76.6759 50.4163 76.9273 53.7536 76.6619C53.2404 76.6491 52.8063 76.6192 52.34 76.6058C52.2904 76.3656 53.0469 76.6297 53.4369 76.5533C53.6243 76.5159 52.4695 76.3459 53.4721 76.2893C54.3343 76.6327 54.9978 76.2873 56.4436 76.2832C56.0418 76.3444 55.6395 76.4054 55.2377 76.4666C57.6808 76.7157 52.0061 76.7978 56.7569 76.9372C56.1852 76.9483 55.6164 76.9453 55.0417 76.9622C55.3203 77.0882 54.8746 77.4581 55.1239 77.5363C55.7778 77.7414 56.7453 77.6177 57.5429 77.6358C57.8919 77.6433 57.6754 77.7432 57.7047 77.7438C58.1828 77.7548 58.0772 77.6085 58.4966 77.5991C59.0244 77.5875 60.5488 77.7298 60.7959 77.7136C61.4353 77.6722 60.3707 77.3833 60.4323 77.3617C60.8399 77.2218 61.6726 77.3378 61.6289 77.1548C59.6254 77.2807 53.8514 77.119 59.075 76.8163C57.6349 76.5206 58.0507 76.113 60.1214 76.0809C61.8343 76.054 60.729 76.2174 61.6207 76.397C61.7359 76.4195 64.0301 76.5054 64.1476 76.3784C64.0556 76.6709 64.8022 76.9299 64.3013 77.2317C64.2279 77.276 63.2865 77.2585 63.615 77.5012C63.7792 77.623 64.2505 77.8883 64.1746 78.0435C64.3681 77.9356 64.5705 77.8142 64.767 77.7017C66.1778 77.6702 66.3782 77.7864 67.1496 77.9876C67.1144 77.9036 66.4017 77.5507 67.484 77.658C67.5395 77.6644 67.5875 77.7911 68.1374 77.854C69.2489 77.9799 69.4809 78.0191 68.6277 78.3911C70.9296 78.1789 71.4255 78.5935 73.786 78.4722C73.3167 77.9941 72.4868 78.1125 70.3253 78.2046C70.2314 78.0909 70.1874 77.9783 70.0906 77.8634C72.9677 78.1212 71.546 78.0949 73.176 77.864C73.5749 77.8074 75.7018 77.868 74.992 77.546C74.8244 77.4703 73.5031 77.479 73.6546 77.3596C73.6839 77.3368 75.2903 77.279 75.4319 77.3098C77.2093 77.6907 74.0331 77.9561 78.9278 77.8173C79.0627 77.8133 79.11 77.674 79.3736 77.6547C79.8692 77.6185 79.8754 77.7798 80.318 77.7426C80.7608 77.7052 81.3744 77.4883 82.0401 77.6889C83.2574 78.054 80.3861 78.264 79.1073 78.0703C78.7404 78.4076 83.1974 78.5117 86.0422 78.5293L86.5194 78.5371L86.8904 78.178C87.7298 77.3489 88.3627 76.7053 88.4716 76.5795C90.0937 74.7058 87.2576 77.6872 87.0142 77.7434C86.9438 77.7591 86.6973 77.5096 86.4163 77.704L86.2527 77.8623L86.0422 77.8589C85.8918 77.8315 85.6737 77.862 85.3519 78.0044C85.0439 78.1409 86.3311 78.3207 85.563 78.3959C84.7946 78.4712 85.0991 78.2622 85.0434 78.2476C84.8522 78.1977 84.0349 78.2751 83.9289 78.2455C82.2981 77.7958 82.4476 77.1163 84.6093 78.1201C85.5508 77.8932 83.3897 77.5316 84.56 77.3776C85.1245 77.3033 85.6284 77.3095 86.0422 77.3448L86.0482 77.3449L86.0528 77.3404C86.5355 76.9338 86.9186 76.7221 87.0011 76.652C88.6388 75.2584 86.5571 76.672 88.5151 74.9275C89.6052 73.9561 87.1948 76.6924 89.5268 74.3167C89.6688 74.172 89.7942 74.0429 89.9046 73.9277L89.9898 73.8452L89.9994 73.7165C90.0742 71.683 89.8335 72.9514 89.4983 72.7439C89.4138 72.6911 89.3953 71.1608 89.3131 73.2384C89.4069 73.3026 89.5286 73.4208 89.6106 73.5577C89.6021 73.6004 89.5905 73.6453 89.5764 73.6919L89.605 73.6281C89.1544 73.9037 88.3459 74.1326 88.1597 74.2967C87.1671 75.1747 87.3911 75.3084 86.6289 75.6493C87.2533 75.4859 86.4733 75.9881 86.2814 76.2773C85.7786 77.0326 86.2438 76.7084 85.7824 77.07L86.0422 76.9624C85.7977 76.9328 85.352 76.8731 84.5131 76.7767C84.8827 76.9295 85.2169 77.0795 85.5748 77.2317C85.2347 77.2369 84.8943 77.2423 84.5542 77.2476C84.0467 76.911 82.2397 76.9541 83.8761 76.6152C81.9083 76.519 81.1128 76.5924 80.6817 76.8542C80.5997 76.9042 80.3041 76.9242 79.9567 76.929C80.0224 77.0026 80.1065 77.23 80.0517 77.2579C79.562 77.5033 78.8027 77.0794 79.0616 76.9177C78.8186 76.9099 78.6262 76.9008 78.5583 76.8969C78.1278 76.8718 78.9718 76.7255 78.6228 76.6754C78.5078 76.6591 77.2948 76.6909 77.2714 76.6314C77.1252 76.2501 79.1213 76.5252 75.1128 76.3037C75.016 76.6507 76.8778 76.5744 76.3997 76.943C75.8864 77.339 74.8395 76.8078 74.6107 77.2936C74.5257 77.2138 74.4881 77.1472 74.4148 77.0562C72.7931 77.2679 72.7716 76.8633 72.2762 76.7739C71.3141 76.5995 66.8912 76.6257 70.8626 76.9763C70.2818 77.0113 69.6889 77.0274 69.1111 77.0584C68.9792 76.3329 69.331 76.6217 66.5478 76.5109C65.9349 76.4864 65.7353 76.1673 65.1342 76.5463C65.2158 76.1746 63.4029 76.3991 63.2337 76.354C62.1485 76.0606 66.1778 75.6523 66.6944 76.3095C67.3746 76.0536 67.3722 76.3918 68.1315 76.347C69.2285 76.2822 69.3808 76.2164 70.6831 76.466C71.9648 76.1143 65.6653 76.3113 69.4841 75.8447C71.5317 75.5946 78.8722 75.4038 86.0422 75.2698L84.5855 75.8731C85.799 74.6134 87.0077 73.3633 88.1556 72.1787L87.5301 73.5729C87.708 69.3722 87.8739 65.7527 87.951 64.0251C88.0261 62.3434 88.0942 60.8044 88.1585 59.3626L88.1546 59.4987C88.0651 52.8828 88.0125 48.3106 88.0297 41.3786C88.0315 40.5456 87.9977 34.2577 88.4042 35.5645C88.4625 35.7523 88.6171 38.4569 88.9361 36.137C88.7477 36.6089 88.6254 35.2449 88.6056 35.1305C88.1553 32.5055 88.0451 34.0251 88.0404 29.8925ZM88.875 17.847C92.8327 21.5125 90.0609 18.6679 91.305 18.9577C90.7903 18.4949 90.2775 18.0337 89.7628 17.5709C89.8726 17.7208 89.9808 17.8691 90.0906 18.019C90.0912 18.0195 90.0918 18.0201 90.0924 18.0206C89.6872 17.9632 89.2802 17.9043 88.875 17.847ZM16.7976 10.0427C17.0081 9.96193 17.216 9.88098 17.444 9.80193C18.1566 9.82701 18.8665 9.85163 19.5791 9.8767C19.4941 9.93152 19.4119 9.98699 19.3269 10.0418C18.4839 10.0395 17.6435 10.0369 16.7976 10.0427ZM78.353 78.1591C77.3441 77.9346 77.4351 78.3353 76.0947 78.1527C76.2589 78.4484 76.4414 78.7376 76.6144 79.0304C77.6347 78.9867 77.8665 78.8742 78.9748 78.9465C78.8458 78.8515 78.7137 78.7558 78.5876 78.6602C78.4031 78.6806 78.2067 78.7038 78.028 78.7219C77.7437 78.4559 79.5146 78.4163 78.3565 78.1585C78.3553 78.1587 78.3542 78.1589 78.353 78.1591ZM68.0142 78.2781C67.4716 78.2396 65.3219 78.0949 65.0286 78.2174C64.0343 78.6327 70.0992 78.3692 65.6292 78.7384C65.6497 78.7966 65.6292 78.8537 65.6292 78.9114C66.4446 78.9318 67.2575 78.9494 68.0787 78.9657C68.0347 78.7359 68.064 78.5091 68.0142 78.2781ZM91.6909 37.1494C91.6589 37.9834 91.8542 41.9589 92.1172 40.663C92.1942 40.2817 91.818 38.5068 91.8343 37.8322C91.8449 37.3954 92.0512 37.885 91.9753 37.0227C91.8844 37.0608 91.7836 37.0844 91.6915 37.1518C91.6913 37.151 91.6911 37.1502 91.6909 37.1494ZM90.4907 35.5857C90.5274 36.4479 90.574 37.3219 90.613 38.19C90.848 37.5564 90.6971 36.3101 91.0278 36.2367C91.0528 36.4742 91.0778 36.709 91.1028 36.9465C91.0305 37.1283 90.9582 37.3073 90.8859 37.4861C91.0655 38.2311 91.1547 37.7799 91.1028 39.1672C91.6027 38.3284 91.871 38.1726 91.3653 35.7968C91.6365 36.2456 92.5202 35.8232 91.8887 34.5064C91.7714 34.26 91.6931 35.2889 91.6744 35.3006C91.4424 35.4588 91.2943 34.888 91.0751 35.0577C90.9759 35.134 90.9774 35.7616 90.8398 35.8555C90.7726 35.8988 90.581 35.3019 90.4907 35.5857ZM91.6674 33.867C91.808 34.1339 92.1415 33.2218 92.0739 32.4299C91.9689 31.1951 91.6517 33.1426 91.6674 33.867ZM16.7929 10.043C16.7945 10.0429 16.7961 10.0428 16.7976 10.0427C16.7969 10.043 16.7961 10.0433 16.7953 10.0436C16.7945 10.0434 16.7937 10.0432 16.7929 10.043ZM70.8121 78.4408C70.1729 78.5603 69.2265 78.5429 69.2964 78.7329C68.9855 78.6955 68.6712 78.6588 68.3603 78.6215C68.3632 78.6786 68.3691 78.7358 68.372 78.7924C69.3075 78.8279 70.2403 78.8636 71.1758 78.8998C71.0585 78.747 70.95 78.5936 70.8121 78.4408ZM60.62 78.3077C59.4441 78.2885 60.4299 78.547 60.1718 78.6718C59.9137 78.7966 58.8661 78.6951 58.9893 78.8742C59.6815 78.8812 60.4035 78.8882 61.1045 78.8946C60.9197 78.6998 60.7907 78.5014 60.6176 78.3077C60.6184 78.3077 60.6192 78.3077 60.62 78.3077ZM68.5701 14.3267C68.5978 14.3704 68.6221 14.4108 68.6439 14.4482L67.5507 13.8947C68.1725 13.962 67.9831 14.1205 69.4561 13.9045C69.455 13.9045 69.4538 13.9045 69.4526 13.9045C68.8699 13.8417 68.2221 13.7815 67.5507 13.7406L68.768 14.357C68.1951 13.4683 67.5493 12.5608 66.874 11.8026C67.3051 12.7411 67.8977 13.2632 68.5701 14.3267ZM81.1427 78.7411C81.4795 78.5848 79.9109 78.4543 79.5648 78.5995C79.0048 78.8345 80.6294 78.9785 81.1427 78.7411ZM41.1639 2.38844C39.9504 2.86958 42.2498 3.40966 44.6575 3.1764C44.8658 3.15599 43.3113 3.00297 43.7718 2.90907C43.8183 2.89982 44.6717 2.91128 44.8828 2.84437C45.0939 2.7773 44.8722 2.62161 45.2183 2.55628C45.8256 2.44212 47.198 2.65366 47.6525 2.50379C47.7124 2.48371 46.8613 2.27549 46.8079 2.26759C45.9339 2.14162 45.0917 2.41379 44.9567 2.4156C44.2615 2.42493 44.3666 2.21155 44.1906 2.16139C43.8591 2.06705 43.2756 2.16136 43.2345 2.15437C42.1796 1.96722 44.5901 2.02077 44.9156 1.94379C45.7924 1.73616 44.9806 1.54314 47.0836 1.42591C47.2832 1.41487 49.6736 1.42741 46.6612 1.18848C52.5762 0.690436 43.6892 0.905187 42.7242 1.01484C42.2794 1.06567 42.9529 1.26906 42.6831 1.3606C42.0672 1.56995 41.0173 1.60688 41.1112 1.90198C41.3136 2.52243 42.6925 2.11589 43.6428 2.22028C43.5431 2.35502 43.5049 2.48642 43.3202 2.61824C43.6047 2.44093 41.2519 2.35222 41.1639 2.38722C41.1639 2.38762 41.1639 2.38803 41.1639 2.38844ZM56.445 1.92989C57.4984 2.7611 57.6145 2.3754 58.553 3.18218C59.6575 3.41927 57.8167 2.37283 57.6137 2.23145C56.9639 1.78058 56.8745 1.48986 56.5174 1.1917L56.2202 1.01177L55.8283 1.0054C55.6319 0.972151 55.3923 0.962462 55.0468 0.997746C55.3297 1.15947 55.5753 1.3224 55.8283 1.48503L56.0828 1.48916L56.2757 1.60598C56.3303 1.71294 56.3859 1.82046 56.445 1.92989ZM44.5813 1.51807C45.4699 1.31978 43.8797 1.32313 43.8152 1.28522C43.113 0.882982 47.8745 0.961155 44.5813 1.51807ZM90.9029 42.3253C90.8895 42.7768 91.0794 42.4903 91.1355 42.8884C91.192 43.2871 91.0296 44.6505 91.1477 44.6164C91.2661 44.5812 91.5732 42.0829 91.6396 44.5906C91.7061 44.5056 91.7557 44.5343 91.8157 44.4932C91.8175 43.804 91.8204 43.1084 91.8221 42.4191C91.6309 42.7975 91.4296 43.1852 91.2447 43.5489C91.0925 43.1617 91.2878 42.9441 91.2878 42.9236C91.2876 42.9236 91.2874 42.9236 91.2872 42.9236C91.2718 42.2023 90.9328 41.3115 90.9029 42.3253ZM78.5608 14.2521C78.4259 14.7274 79.4905 14.1965 79.9275 14.1376C80.3644 14.0789 80.9649 14.2549 80.7393 14.0504C80.0324 13.9092 78.5755 14.199 78.5608 14.2527C78.5608 14.2525 78.5608 14.2523 78.5608 14.2521ZM62.0909 6.64334C62.8431 7.47269 62.838 7.25701 63.5309 8.43863C63.5922 8.32806 63.6556 8.21602 63.7156 8.1065C63.0769 7.23284 62.853 7.49159 62.22 6.40301C62.1163 6.22443 62.5912 6.42101 61.9738 5.72501C62.0188 6.02649 62.0533 6.34007 62.0909 6.64334ZM65.7014 10.84C64.9303 9.81966 63.5806 9.55253 65.3126 11.2026C65.5698 11.4468 66.2814 11.6072 65.7014 10.84ZM90.8794 30.5295C90.8526 32.7048 91.0027 30.2335 91.1456 29.6672C91.2598 34.7313 91.1065 29.0955 91.5817 28.5903C91.4463 27.9715 91.1369 26.8134 91.054 28.0999C91.0196 28.6367 91.1611 28.4407 91.1605 28.473C91.1255 29.4613 90.894 29.3416 90.8794 30.5295ZM53.829 1.7024C53.9112 1.6954 53.7827 1.53489 54.0437 1.50281C54.3051 1.47097 54.8966 1.58331 54.9553 1.48481C55.0136 1.3857 53.827 1.30883 53.463 1.38105C53.0993 1.45395 53.087 1.7642 53.829 1.7024ZM61.0551 5.94126C61.7914 6.74885 61.2161 4.96644 61.074 4.77754C59.8199 3.12209 61.2424 5.88008 61.0551 5.94126ZM89.8751 25.478C90.1755 28.1001 90.6974 26.182 91.0101 24.5395C90.9465 24.3226 90.8829 24.1 90.8199 23.886C91.2061 24.8715 91.5877 26.5986 91.2512 22.7563C91.1603 24.8594 91.0566 23.0983 91.0348 23.0848C90.3255 22.8531 90.6549 25.9684 89.8751 25.4756C89.8751 25.4764 89.8751 25.4772 89.8751 25.478ZM50.2944 1.53333C49.1531 1.5357 46.1862 1.65821 47.5704 1.96729C48.4795 1.82268 49.3853 1.67795 50.2944 1.53333ZM89.4006 68.3574C89.17 69.2783 89.1231 70.1368 89.068 71.2853C89.3849 70.2667 89.3749 70.9476 89.4175 71.2997C89.4815 71.8338 89.5481 70.553 89.5656 70.5504C89.8082 70.588 89.7986 71.4066 89.9009 69.5475C89.9592 70.012 90.0184 70.4705 90.0761 70.9349C90.1696 69.5187 90.3481 69.1944 90.5948 68.307C90.069 69.1519 90.4332 68.0203 90.2574 66.9642C90.1693 66.437 89.5184 67.889 89.4004 68.3609C89.4005 68.3598 89.4005 68.3586 89.4006 68.3574ZM89.7796 28.1879C89.8653 28.4577 89.9813 28.7047 90.0793 28.9657C90.0886 29.2502 90.0968 29.5352 90.1061 29.8197C90.0303 29.8549 89.951 29.8843 89.8782 29.9253C89.8561 30.3002 89.9616 30.1541 89.9715 30.2655C89.9711 30.2655 89.9707 30.2655 89.9703 30.2655C90.1102 31.8634 90.0945 32.5177 89.8602 33.7697C90.0924 33.7697 90.3246 33.7697 90.5569 33.7697C90.5347 33.4883 90.5131 33.204 90.4916 32.9227C90.3668 32.7731 90.2419 32.6229 90.1171 32.4733C90.1859 32.1478 90.2543 31.8252 90.3231 31.4996C90.2782 31.2388 90.231 30.9253 90.1873 30.6996C90.8364 29.4004 90.3954 32.3531 90.6649 32.3795C90.8381 32.397 90.8306 29.4233 90.711 28.995C90.6935 28.9334 90.2101 29.576 90.462 28.4882C90.5016 28.3181 91.5474 28.2583 90.7006 27.0852C90.5805 26.918 89.9308 27.5018 89.7796 28.1879ZM89.4424 38.9854C90.1113 37.3136 89.404 43.4839 89.9545 40.8213C90.2618 41.5809 90.2578 41.4399 90.5306 40.6747C90.5551 40.6073 90.6395 41.136 90.6503 41.0912C90.8007 40.3755 90.721 39.5133 90.9945 39.5074C90.9799 39.314 90.967 39.1319 90.9524 38.9385C90.6946 39.7445 90.5214 38.4627 90.3039 37.9671C90.2054 37.7414 90.175 38.2602 90.0887 38.0703C90.0573 38 90.1201 37.2754 90.0298 37.2456C89.8257 37.184 89.5498 37.6392 89.3993 38.4106C89.3991 38.4106 89.3989 38.4106 89.3987 38.4106C89.4121 38.6039 89.4284 38.792 89.4424 38.9854ZM75.0344 15.7529C74.7499 15.3832 73.6095 15.2773 75.8004 15.0965C75.692 15.0237 75.5804 14.9514 75.472 14.8786C75.1025 14.885 74.7445 14.8914 74.3692 14.8972C73.243 15.9866 71.1873 14.7572 72.5039 15.5299C72.6477 15.6138 73.524 15.52 72.6588 15.7481C72.66 15.7483 72.6611 15.7485 72.6623 15.7487C73.8704 15.6787 74.0226 15.5477 75.0344 15.7529ZM83.1208 15.4951C85.9072 14.717 79.2705 15.0609 80.3792 15.2674C80.4789 15.2861 83.3378 15.1189 83.1208 15.4951ZM62.7899 10.3247C63.5185 11.3394 63.9059 11.1577 63.9532 10.9667C64.0007 10.7753 63.3652 10.1688 63.3184 10.0647C63.1666 9.72494 63.6651 10.3159 63.4725 9.87143C63.4082 9.72465 62.241 7.88234 62.1674 7.81268C61.7588 7.42594 61.9586 8.28326 61.8329 8.1791C61.4227 7.84003 61.1531 7.16848 60.916 7.15684C60.4084 7.12949 61.5143 7.93849 61.6503 8.11238C62.0594 8.63797 61.8467 8.72204 62.1061 9.15017C62.3653 9.57793 62.6192 9.79552 62.8667 10.1591C62.9491 10.2801 62.7536 10.2728 62.7899 10.3247ZM65.9494 13.1292C64.921 12.2657 66.5228 15.0308 66.8058 15.2905C67.6403 16.0532 66.4414 13.543 65.9494 13.1292ZM90.4519 34.7997C90.2215 33.6063 90.0351 36.3863 90.1278 37.1811C90.2235 37.0337 90.5312 35.2102 90.4519 34.7997ZM89.8763 24.7506C89.9481 25.8476 90.4671 24.3929 90.4589 23.4778C90.1178 22.9413 90.1854 23.4461 90.1714 24.0444C90.1573 24.642 89.8204 23.8949 89.8763 24.7506ZM53.1873 2.91487C53.424 2.92028 57.2384 2.63835 55.0468 2.52119C54.8796 2.51244 52.2096 2.56208 52.0072 2.61457C51.6 2.72073 52.5774 2.8997 53.1873 2.91487ZM88.7232 20.7877C89.3527 20.955 89.7758 21.3389 89.609 20.7248C89.6084 20.7243 89.6078 20.7238 89.6073 20.7233C89.8538 20.9138 90.0292 21.0895 90.155 21.2502L89.9825 20.8645C89.8487 21.6132 89.4106 21.7065 89.4225 21.9562C89.4757 23.0642 89.9802 22.0145 90.1458 22.7094C90.0192 21.3956 90.2203 21.4562 90.3116 20.8645L90.3744 21.005C90.2869 20.8985 90.1699 20.7735 90.0013 20.6172C89.7989 20.4299 88.8413 19.8456 88.6366 19.8323C88.4322 19.8193 88.599 20.4778 88.7232 20.7877ZM47.7992 2.98841C49.0866 3.10147 50.2654 2.62328 48.4796 2.54743C47.6085 2.51011 47.0131 2.91959 47.7992 2.98841ZM66.1571 76.5948C66.3536 76.7202 66.556 76.845 66.7672 76.9692C66.2922 76.9996 65.8168 77.0305 65.3418 77.0614C65.7172 77.0217 66.0932 76.9827 66.4715 76.9436C65.5799 76.8999 65.1722 76.6718 66.1548 76.5948C66.1556 76.5948 66.1564 76.5948 66.1571 76.5948ZM34.4134 76.4993C34.0145 76.3785 33.2286 76.7524 33.3283 76.7816C34.0789 76.9989 34.9671 76.6667 34.4134 76.4993ZM89.3163 36.5629C89.264 38.0458 89.8719 37.0261 89.9136 36.1171C89.7973 36.6732 89.3461 35.7214 89.3163 36.5629ZM45.5769 76.5289C45.7101 76.5811 45.8442 76.6334 45.9934 76.6857C45.5243 76.6131 45.443 76.5642 45.5769 76.5289ZM53.7939 3.45167C54.0002 3.49417 55.4088 3.52993 55.8283 3.49229L55.2643 3.33982C55.3015 3.35724 55.3309 3.36933 55.3508 3.37502C55.5238 3.42386 55.5008 3.32419 55.3668 3.16424L55.8283 3.28903C55.4953 3.16923 54.7993 3.0605 54.3159 3.12544C54.2308 3.13652 53.5686 3.40501 53.7974 3.45167C53.7962 3.45167 53.795 3.45167 53.7939 3.45167ZM64.1511 76.3619C64.1537 76.3678 64.1523 76.3733 64.1476 76.3784C64.1493 76.373 64.1488 76.3674 64.1511 76.3619ZM4.16661 72.2149C4.16538 72.228 4.16144 72.2378 4.15392 72.2428C4.15834 72.2344 4.16076 72.223 4.16661 72.2149ZM61.5756 9.80902C61.4386 10.601 62.4473 11.4541 62.0774 10.4666C62.0559 10.4119 61.6547 9.91861 61.5756 9.80902ZM59.0906 54.7555C60.4219 53.4659 61.7945 52.1238 63.1822 50.7724L62.4205 52.5644C62.4036 49.3587 62.3972 46.1053 62.4598 43.0257C62.472 42.4192 62.6399 42.4606 62.6621 42.2904C62.7233 41.8252 62.5252 41.5452 62.5397 41.2061C62.5664 40.5773 62.5871 39.964 62.606 39.3561L62.8925 40.4687C62.4431 39.5909 61.9965 38.7278 61.5478 37.833C60.8003 36.343 61.638 36.7807 61.4697 36.2125C61.1414 35.1021 61.0102 36.2731 60.6616 35.9577C60.0711 34.8029 59.5038 33.6221 58.9418 32.4489C59.1506 32.6958 59.3583 32.9434 59.5647 33.1956C59.3035 32.6932 59.0041 31.9331 59.6178 32.6772C59.5595 32.4701 59.5151 32.2711 59.453 32.0595C59.2075 32.1276 58.7059 31.2597 58.5329 31.2504C58.3601 31.2414 58.6618 31.7184 58.6489 31.7216C58.5588 31.7497 58.2852 31.2163 58.0284 30.6614L58.8884 31.4488C58.3591 31.1686 57.8302 30.8624 57.7588 30.8198C57.3777 30.592 57.8553 30.4671 57.5044 30.3337C56.9009 30.1041 57.0411 30.8495 56.5787 29.7365C56.152 29.8432 56.181 29.7027 55.7863 29.5078C55.7343 29.4823 55.7122 29.6435 55.6873 29.6369C55.0317 29.4741 55.6171 29.4149 55.6203 29.3991C55.6731 29.13 54.9718 28.9501 54.8446 28.8658C53.9097 28.2483 53.1186 27.7329 52.264 27.2367L52.4413 27.2865C51.761 27.119 51.0528 26.9698 50.2374 26.8311C49.8126 26.7591 48.4981 26.695 48.0909 26.5953C47.6893 26.497 47.9332 26.3348 47.732 26.2149C47.3295 26.6294 46.9967 26.6371 46.2693 26.2328C45.9393 26.5304 46.0117 26.2648 45.4555 26.2596C44.9925 26.255 44.1454 26.5523 43.6892 26.1433C44.26 26.2504 44.2222 26.0778 44.8826 26.0638C45.1024 26.0594 47.3501 26.3491 47.2282 25.9842C47.1646 25.7941 46.3983 25.8598 46.3739 25.8231C46.2317 25.609 46.6784 25.4279 47.0359 25.5593C46.939 25.5859 46.8232 25.6106 46.7194 25.6363C47.5151 25.9855 47.0678 24.9888 47.5903 25.8772C47.655 25.9863 47.6113 26.0853 47.7256 26.2072C47.7576 26.1673 47.6151 26.0389 47.7527 26.0375C47.893 26.0363 48.1276 26.2752 48.1893 26.1081C48.2807 25.8653 47.6969 25.8887 47.6559 25.8683C47.6552 25.8698 47.6546 25.8713 47.6539 25.8727C47.2918 25.6896 48.0868 25.7792 48.1278 25.7604C48.3938 25.6368 48.2423 25.4945 48.6275 25.4143C48.8472 25.3686 49.3764 25.4825 49.577 25.4849C49.7763 25.4865 49.4868 25.3277 49.6221 25.3197C49.7575 25.3117 49.9099 25.4234 50.0687 25.4144C50.1367 25.4101 50.1508 25.2775 50.1835 25.2772C50.5344 25.2718 50.2723 25.5168 50.5867 25.5413C50.7904 25.5568 51.5029 25.3902 51.0452 25.2521C51.2736 25.2552 51.4954 25.2647 51.7219 25.2735C51.5859 25.2155 51.4437 25.1696 51.3121 25.1052C51.7248 25.2237 51.9451 25.0227 52.2112 25.0407C52.3894 25.0529 52.5383 25.1925 52.7096 25.2553L53.0921 25.3626C53.1645 25.4161 53.2475 25.4532 53.3539 25.452C53.7056 25.4483 53.4917 25.3139 53.1786 25.1669L52.7376 25.0431C52.4121 24.9926 51.997 24.9565 51.9073 24.9197C51.8357 24.8901 52.1488 24.7152 52.1935 24.7149C52.3921 24.7141 52.6027 24.8965 52.7539 24.9096C52.7544 24.9096 52.7548 24.9096 52.7552 24.9097L53.233 25.0438C53.7393 25.2392 54.1249 25.1887 54.6143 25.3603C56.2819 25.9454 58.3265 26.7257 59.8713 27.3598C60.1532 27.4757 60.357 27.621 60.522 27.7517L61.2744 28.1219L61.5674 28.7089C61.6215 28.921 61.6518 29.0949 61.7234 29.2179C62.052 29.782 62.2642 29.7562 62.5484 30.2496C62.9721 30.9836 63.3972 32.1125 63.7062 32.7498C63.9202 33.1909 64.3024 33.4863 64.368 33.5956C65.2658 35.0831 66.2802 36.9276 66.9892 38.2084L67.2848 39.3561C67.2848 39.3845 67.2849 39.4127 67.2849 39.4407C67.2861 40.1305 67.0705 40.4581 67.0768 40.6005C67.1036 41.2128 67.288 41.0486 67.2694 41.545C67.2595 41.8132 67.0825 41.8633 67.0756 41.8992C67.0172 42.2152 67.2483 42.2781 67.2559 42.5247C67.2997 43.9426 67.1484 45.3085 67.1262 46.7125C67.1245 46.8144 67.0221 46.8053 67.0274 46.8713C67.0525 47.1547 67.2137 47.0229 67.2254 47.319C67.2505 47.9349 67.2239 48.5672 67.2034 49.2201C67.2014 49.2848 67.0698 49.3138 67.0698 49.4618C67.0698 49.6099 67.1945 49.7223 67.1876 49.9549C67.1695 50.5626 67.0203 51.1623 67.0121 51.8059C67.0109 51.9124 67.1695 52.0444 67.1677 52.2041C67.1666 52.3145 67.1587 52.4365 67.1471 52.5644L67.1041 53.6062L66.462 54.1759C66.1074 54.4603 65.668 54.761 65.424 54.9904C64.3925 55.9618 63.5139 56.9338 62.5536 57.8607C62.3277 58.0783 62.0257 58.1653 61.9058 58.276C61.6357 58.5259 61.9318 58.4332 61.6639 58.6923C60.2245 60.0824 58.7616 61.4554 57.3003 62.8424L56.6923 63.3818L56.0555 63.424C55.0102 63.5285 53.9629 63.6364 52.9137 63.7532C51.7115 63.8868 50.2629 64.1872 49.0962 64.2729C48.6111 64.3082 48.5028 64.1268 48.1608 64.1619C47.5508 64.2253 47.4666 64.4818 46.826 64.5754C46.3623 64.6429 45.8135 64.5004 45.3181 64.5275L44.8487 64.5245C44.7987 64.5158 44.7488 64.5089 44.6991 64.5044C44.1641 64.4551 43.8894 64.6622 43.2735 64.6166C42.7662 64.5789 42.0747 64.3864 41.5233 64.3375C39.4143 64.1506 37.3201 63.9545 35.229 63.7314L34.2856 63.578L33.7802 63.0166C31.6991 60.9464 29.6558 58.8392 27.6557 56.6381C27.317 56.2654 26.962 55.8872 26.6015 55.503L25.9953 54.8297L25.9535 54.1155C25.8462 52.762 25.7351 51.3549 25.7698 50.0046C25.7745 49.8285 26.0303 50.0715 25.9264 49.5189C25.8703 49.2221 25.631 48.8237 25.5519 48.1326C25.3437 46.3105 25.2246 44.4251 25.1127 42.5267L25.2116 41.6777C26.0803 39.4537 26.9679 37.2159 27.6857 34.9872C28.0438 33.875 28.3552 32.7385 28.6508 31.5968L28.9302 30.8822L29.4431 30.57C31.3403 29.0787 33.1978 27.5301 35.1255 26.2156L35.6109 25.9639C38.0965 24.9736 40.6052 24.3037 43.2032 24.4189C43.4962 24.432 43.5684 25.0229 43.4774 25.2339C43.2959 25.1784 43.117 25.0982 42.9236 25.0311C43 25.7748 42.9647 25.5871 42.2611 25.7895C41.8279 25.9138 42.2735 26.0723 42.0819 26.2403C41.8333 26.4576 40.603 27.3149 40.6921 26.7684C40.6378 26.8782 40.5886 26.9822 40.5358 27.0895C39.5782 27.537 38.6656 28.0178 37.753 28.5174C37.5954 28.604 37.6418 28.7467 37.4787 28.8354C37.2551 28.9576 37.0408 29.0302 36.822 29.0985L36.9896 29.0116C36.7996 29.1209 36.6048 29.227 36.4018 29.3713C36.1761 29.5315 36.2403 29.6969 35.9327 29.8887C35.6252 30.0803 35.5021 29.8813 35.232 30.3668C35.6625 30.4324 34.35 31.0515 33.9353 31.3498C33.8749 31.3928 33.5155 31.9491 33.23 32.1031C32.9438 32.2581 32.4411 32.3909 32.0771 32.7484C31.9065 32.9162 31.9017 33.166 31.6973 33.3164C31.6115 33.3794 31.4774 33.3931 31.3425 33.4191L31.8885 32.7114C31.8266 32.7807 31.7678 32.8548 31.7352 32.9399C31.6546 33.1508 31.6373 33.6611 31.6105 33.7465C31.5148 34.0551 31.5095 33.6765 31.4315 33.8832C31.0569 34.8817 30.5887 36.0306 30.3281 37.0525C30.296 37.1781 30.4971 37.0582 30.4962 37.0761C30.386 37.9659 30.3522 37.4591 30.1472 37.639C29.9488 37.8134 29.4697 39.4243 29.7141 39.5215C29.3862 39.4632 29.5023 39.8979 29.4799 39.9927C29.3923 40.3616 29.1473 40.199 29.1115 40.5735C29.0981 40.7108 29.3651 40.5263 29.3128 40.6609C29.1835 40.9934 28.7868 41.1962 28.6031 41.6348C28.5586 41.7407 28.6767 41.8208 28.6059 42.0119C28.5351 42.2032 28.0975 42.9568 28.5005 42.6783C28.4672 42.7137 28.4374 42.7472 28.4107 42.7791L28.4793 42.1901C28.3617 42.6194 28.4808 42.7426 28.5299 43.292C28.5431 43.4442 28.3419 43.662 28.4427 43.9786C28.4769 44.0857 28.6894 44.0612 28.7076 44.2258C28.7498 44.6019 28.565 44.9787 28.6041 45.4575C28.6767 46.353 28.9267 47.289 28.9647 48.2263C28.9749 48.4811 28.7547 48.4393 28.7874 48.808C28.7928 48.8622 29.0222 49.2873 29.0302 49.5436C29.0351 49.6978 28.9844 50.5046 28.99 50.6657C28.9997 50.9321 29.2114 50.9587 29.1854 51.1078C29.1107 51.5387 28.7725 51.2328 29.2396 51.6956C29.0252 51.8846 29.0778 52.1771 28.8029 52.3C29.1317 52.4404 28.8545 52.6929 28.9922 53.0153C29.1299 53.3377 29.7608 53.5503 29.1194 53.6959C29.1337 53.7183 29.1505 53.7521 29.1687 53.7939L28.9119 53.244C29.1376 53.363 29.5533 53.647 29.626 53.7092C29.8773 53.9263 29.6245 53.926 29.8166 54.0875C29.8502 54.1161 29.9063 53.9968 30.0949 54.2071C30.2185 54.3453 31.1618 55.3208 31.2064 55.3906C31.7146 56.1868 30.7666 55.116 30.5313 55.0664C30.5317 55.0167 30.5325 54.9671 30.531 54.9159C30.287 54.583 30.2502 54.9443 30.3334 55.122C30.4166 55.2997 30.7474 55.4603 30.7896 55.6343C30.8103 55.7213 30.538 55.9211 30.4047 55.727C30.5046 55.9765 30.1899 55.8102 30.1893 55.948C30.1889 56.0994 30.9453 56.9197 31.0812 56.7952C30.9401 56.6417 30.7543 56.4608 30.6124 56.3048C30.6488 55.884 32.0157 55.7178 32.2399 56.572C32.4031 57.191 31.5817 56.7106 32.6923 57.4668C32.5599 57.313 32.4615 57.1696 32.3424 57.0287C32.5004 56.8468 32.5203 57.2448 32.6826 57.3015C32.761 57.3282 32.5639 56.8835 32.881 57.1269C32.8734 57.6103 33.3034 57.556 33.7053 57.9611C33.5506 57.8906 33.3961 57.8196 33.2414 57.7491C33.7374 58.6126 32.1129 57.0687 33.3241 58.5068C33.1585 58.3532 33.0036 58.1906 32.833 58.0403C32.8197 58.2069 32.4323 58.3398 32.4452 58.4648C32.479 58.7927 32.8343 58.9793 33.0415 59.2169C33.1324 59.3207 33.0013 59.3294 33.0089 59.3381C33.1329 59.4808 33.2085 59.3486 33.3309 59.4605C33.4848 59.6013 33.8037 60.1309 33.8835 60.1893C34.0895 60.3408 34.0023 59.8384 34.0347 59.8407C34.2472 59.8579 34.394 60.174 34.5128 60.0337C33.8699 59.5564 32.3924 57.814 34.0501 59.0764C33.8642 58.4633 34.2705 58.2956 34.8647 58.8575C35.3565 59.3221 34.9348 59.1244 35.0523 59.5016C35.0681 59.5499 35.6397 60.2573 35.7629 60.2017C35.5284 60.3802 35.5492 60.772 35.1952 60.8416C35.1433 60.8519 34.896 60.574 34.8132 60.8363C34.7713 60.9679 34.7117 61.2863 34.5798 61.3734C34.7103 61.3526 34.853 61.3248 34.9877 61.3016C35.1075 61.411 35.1901 61.5003 35.2487 61.5807L35.3277 61.6684L35.4751 61.6924C35.709 61.7558 35.7989 61.8673 35.9961 62.0348C35.9923 61.9497 35.7553 61.5656 36.1665 61.7234C36.1875 61.7323 36.1912 61.8604 36.3991 61.9488C36.8195 62.1264 36.9057 62.1762 36.5269 62.5052C37.4542 62.4034 37.5989 62.8384 38.5383 62.8297C38.4117 62.3328 38.0723 62.4111 37.2144 62.4004C37.1912 62.283 37.1875 62.1692 37.1633 62.0505C38.2597 62.4425 37.7058 62.3492 38.3721 62.197C38.5352 62.1597 39.3613 62.3204 39.1218 61.9672C39.0652 61.8841 38.5464 61.8302 38.6201 61.7188C38.6343 61.6977 39.2707 61.7162 39.3225 61.7535C39.9733 62.2157 38.6969 62.329 40.6315 62.4227C40.6848 62.425 40.72 62.289 40.8256 62.2823C41.0241 62.2698 41.0072 62.4302 41.1851 62.4142C41.3631 62.3981 41.6295 62.2118 41.8663 62.4423C42.2995 62.8624 41.1493 62.9351 40.6715 62.6823C40.4109 63.1314 43.9895 63.5739 44.2162 63.5602C45.206 63.5005 43.582 63.4079 43.5148 63.2665C43.487 63.2067 43.5892 62.5042 43.1261 62.9122C42.9891 63.0331 43.4719 63.2725 43.162 63.3109C42.8519 63.3493 42.9962 63.1562 42.9761 63.1391C42.9072 63.0804 42.5777 63.1187 42.5397 63.0843C41.9546 62.5607 42.0946 61.8931 42.8213 62.9919C43.2174 62.8112 42.414 62.35 42.891 62.2524C43.4707 62.1339 43.8388 62.5043 43.9071 62.5272C44.7263 62.7999 43.8145 62.214 44.8222 62.4877C45.3543 62.6321 44.0747 62.6905 45.0563 62.8043L45.1326 62.8047C45.1862 62.7987 45.2463 62.7913 45.3137 62.7825C46.4043 62.6386 45.7962 62.5387 45.8356 62.1584C45.845 62.0694 46.4325 61.8983 45.6209 62.0244C45.6083 62.1237 45.5785 62.256 45.5364 62.3509C45.4053 62.3199 45.2034 62.1299 45.0451 61.9924L45.1542 61.9931C45.0821 61.8939 45.0205 61.8155 44.9821 61.8046C44.4735 61.6615 44.4682 61.9157 44.1983 61.583C44.3775 61.933 44.0458 61.6951 43.9042 61.7473C43.3789 61.9394 44.0166 62.1114 42.9446 61.6536C43.0711 61.8228 43.1841 61.9875 43.3061 62.1556C43.1722 62.1447 43.0382 62.134 42.9043 62.1231C42.7458 61.765 42.0326 61.7223 42.7143 61.4632C41.9548 61.2747 41.6344 61.3099 41.4341 61.5494C41.396 61.5952 41.2777 61.601 41.141 61.5894C41.1579 61.6656 41.1636 61.8954 41.1388 61.9205C40.9176 62.1409 40.6708 61.6842 40.7917 61.5358C40.6974 61.5166 40.6231 61.4985 40.5969 61.4914C40.4313 61.4461 40.7795 61.3408 40.6488 61.2745C40.6057 61.2529 40.1266 61.2271 40.1245 61.167C40.1129 60.7815 40.8621 61.149 39.318 60.7395C39.2385 61.0795 39.9771 61.0917 39.7456 61.4351C39.4971 61.804 39.1505 61.2271 39.0027 61.6986C38.9789 61.6153 38.9722 61.5474 38.9543 61.4536C38.2936 61.5871 38.3336 61.1844 38.1502 61.0722C37.7941 60.8536 36.058 60.6705 37.5721 61.2063C37.3403 61.2135 37.1061 61.2016 36.876 61.2049C36.9112 60.4785 37.0145 60.7818 35.9372 60.5402C35.7988 60.5091 35.7275 60.3851 35.6363 60.3563L36.211 60.6398C36.1731 60.5831 36.097 60.5578 35.9151 60.5974C36.2034 60.3606 35.5426 60.006 35.5282 59.9267C35.4618 59.5479 36.2149 59.9171 36.4767 60.38L35.6809 59.9873C35.8537 60.0562 35.9867 60.1717 36.0188 60.3472C36.3159 60.1253 36.2745 60.461 36.5774 60.4524C37.0149 60.44 37.0825 60.3818 37.5629 60.6912C38.1072 60.4026 35.6153 60.3003 37.1675 60.0176C38.162 59.8367 42.1074 60.0971 45.3521 60.3539L44.8683 60.3508C46.6753 60.0807 48.2669 59.8593 48.9962 59.7554C51.7189 59.3679 53.484 59.1077 55.5642 58.8623L54.1167 59.5386C54.6391 59.0248 55.1932 58.4887 55.8189 57.8933C56.0568 57.6665 57.8204 55.9202 57.731 56.5707C57.7182 56.6641 57.0568 57.5161 57.9374 57.1105C57.6726 57.1041 57.9754 56.6425 57.9942 56.5969C58.4277 55.5538 57.9194 55.8906 59.0906 54.7555ZM65.0875 54.0106C63.4903 55.4209 64.805 54.5314 64.9123 55.2801C65.1102 55.0918 65.3074 54.9041 65.5054 54.7158C65.427 54.7379 65.3493 54.7594 65.2709 54.7815C65.2707 54.7817 65.2705 54.7819 65.2703 54.7821C65.2091 54.5252 65.1486 54.2676 65.0875 54.0106ZM50.7333 24.8166C50.8262 24.7474 50.9182 24.6779 51.0177 24.6113C51.2933 24.673 51.5678 24.7341 51.8433 24.7958C51.8029 24.8457 51.7635 24.8965 51.723 24.9464C51.3935 24.9005 51.065 24.8546 50.7333 24.8166ZM40.3653 62.7348C39.9969 62.4642 39.9845 62.8663 39.4812 62.6217C39.5101 62.923 39.5469 63.2188 39.5797 63.5176C39.9846 63.5224 40.089 63.4218 40.5145 63.5459C40.4754 63.4455 40.4351 63.3443 40.3972 63.2434C40.3224 63.2549 40.2427 63.2687 40.1705 63.2782C40.091 63.0007 40.7896 63.045 40.3667 62.7344C40.3662 62.7345 40.3657 62.7347 40.3653 62.7348ZM36.3 62.3641C36.1566 62.32 35.7199 62.1897 35.42 62.1484L35.0947 62.0954L34.9203 61.9018C34.8267 61.8027 34.7434 61.7351 34.6911 61.736C34.5007 61.7392 34.5805 61.911 34.7162 62.1014L34.9498 62.3609L35.3858 62.4318C35.8307 62.5575 36.4915 62.6036 35.3529 62.7045L34.8105 62.6162L34.5198 62.2934C34.5082 62.2857 34.4964 62.2777 34.4843 62.2697C34.4483 62.3162 34.4019 62.3503 34.3606 62.3906C34.3697 62.4012 34.3788 62.4118 34.3879 62.4224L34.7169 62.7877L35.3308 62.8876C35.6341 62.9436 35.9369 62.9971 36.2429 63.0497C36.2532 62.8195 36.2919 62.5957 36.3 62.3641ZM59.5613 59.3715C59.3021 59.5768 58.3078 60.8062 58.8586 60.6407C59.0204 60.5917 59.2637 59.8347 59.4668 59.6618C59.5982 59.5497 59.6022 59.8323 59.7947 59.5416C59.7207 59.4866 59.6441 59.4204 59.561 59.3726C59.5611 59.3722 59.5612 59.3719 59.5613 59.3715ZM59.1728 58.079C58.9533 58.3415 58.7372 58.6144 58.5176 58.8803C58.8607 58.876 59.1102 58.426 59.3605 58.644C59.3104 58.7271 59.261 58.8094 59.2109 58.8925C59.1091 58.8902 59.008 58.8871 58.907 58.884C58.8199 59.2174 59.0101 59.1581 58.5798 59.5006C59.165 59.6308 59.3955 59.7813 59.7197 58.7666C59.7804 59.0848 60.5136 59.6054 60.4496 58.7901C60.4383 58.6382 60.0916 58.8635 60.0753 58.8533C59.8693 58.7295 59.9288 58.4666 59.7284 58.3552C59.6379 58.3047 59.4606 58.4777 59.3384 58.4042C59.2795 58.3678 59.3162 58.0663 59.1728 58.079ZM60.4778 58.4557C60.4995 58.63 60.9902 58.6204 61.1683 58.3548C61.4464 57.941 60.6728 58.2459 60.4778 58.4557ZM50.7314 24.8167C50.732 24.8167 50.7327 24.8166 50.7333 24.8166C50.7329 24.8169 50.7326 24.8171 50.7322 24.8174C50.732 24.8172 50.7317 24.8169 50.7314 24.8167ZM37.3768 62.6579C37.112 62.7463 36.7433 62.6842 36.7479 62.8762C36.6306 62.8244 36.5118 62.7731 36.3945 62.7213C36.3888 62.7781 36.3842 62.8352 36.3786 62.8915C36.7409 62.9711 37.1021 63.0506 37.4643 63.1308C37.4367 62.9735 37.4125 62.8161 37.3768 62.6579ZM33.4101 60.5551C33.0993 60.2098 33.1865 60.6687 33.0261 60.6831C32.8656 60.6976 32.6492 60.3309 32.5551 60.4909C32.7411 60.6911 32.9353 60.8998 33.1241 61.1021C33.2124 60.9137 33.3187 60.7386 33.4094 60.5544C33.4096 60.5546 33.4098 60.5548 33.4101 60.5551ZM66.2778 44.7517C66.2218 45.0665 66.0246 44.9381 66.2556 45.5596C66.2556 45.5592 66.2556 45.5587 66.2556 45.5583C66.4171 44.9668 66.5611 44.2053 66.4048 43.5526C66.1967 43.9518 66.3653 44.2563 66.2778 44.7517ZM41.3886 63.4445C41.5393 63.3053 40.9403 63.1015 40.7873 63.2293C40.5397 63.4362 41.1591 63.6559 41.3886 63.4445ZM61.3591 32.9538C60.7064 32.7669 60.6719 33.8224 61.3352 34.5417C61.3928 34.6038 61.2304 33.9927 61.4004 34.1065C61.4174 34.1181 61.57 34.4185 61.6689 34.4592C61.7679 34.4997 61.8619 34.3479 61.9851 34.4359C62.2008 34.5906 62.2773 35.1671 62.4951 35.2518C62.5241 35.2627 62.5442 34.8681 62.5409 34.8458C62.4846 34.4829 62.0857 34.3234 62.0584 34.2776C61.9177 34.0419 62.1246 33.9751 62.1349 33.89C62.1543 33.7299 61.9605 33.5738 61.9588 33.5563C61.9215 33.1013 62.3342 33.9602 62.4637 34.0355C62.8126 34.2382 62.8269 33.8644 63.3304 34.5344C63.3782 34.5981 63.8229 35.4302 63.4578 34.2738C65.0216 36.0772 63.1392 33.1099 62.8592 32.8294C62.7299 32.7003 62.6802 33.0313 62.5487 32.9823C62.2479 32.8706 62.0154 32.5256 61.7749 32.7006C61.2703 33.0703 61.8891 33.3504 61.9789 33.7292C61.8419 33.7598 61.7196 33.8101 61.569 33.8099C61.7784 33.8226 61.4076 32.9667 61.3601 32.9532C61.3598 32.9534 61.3594 32.9536 61.3591 32.9538ZM64.8346 37.7858C64.924 38.3353 65.249 38.1136 65.285 38.6425C65.7976 38.8435 65.3732 38.1232 65.3436 38.0285C65.2065 37.5965 65.5462 37.4207 65.2236 37.0794C65.1009 37.3255 64.9622 37.5475 64.8346 37.7858ZM62.7727 33.7143C63.1157 33.9256 62.8096 33.3777 62.8305 33.3371C63.0488 32.9001 63.8882 34.5833 62.7727 33.7143ZM57.5436 60.2215C57.406 60.3355 57.6191 60.3938 57.5449 60.5432C57.4708 60.6931 56.9706 60.9495 57.0623 61.0252C57.1545 61.1008 58.0775 60.6377 57.411 61.3724C57.4813 61.397 57.5075 61.4405 57.5609 61.4725C57.758 61.285 57.9576 61.0966 58.1547 60.9091C57.9145 60.875 57.6647 60.8363 57.433 60.8027C57.4374 60.5871 57.6348 60.6681 57.6406 60.6625C57.6404 60.6623 57.6403 60.6622 57.6402 60.6621C57.8345 60.4535 57.8524 59.9654 57.5436 60.2215ZM65.908 49.153C65.4326 49.0997 65.9635 49.5199 66.0224 49.6924C66.0811 49.8648 65.9051 50.1018 66.1097 50.0127C66.2508 49.7338 65.961 49.1588 65.9074 49.153C65.9076 49.153 65.9078 49.153 65.908 49.153ZM65.6034 40.794C65.7188 41.2336 65.8424 41.1638 65.7014 41.7015C65.8163 41.6807 65.9337 41.6598 66.0468 41.639C66.0492 41.2119 65.7156 41.2419 65.8497 40.7477C65.8718 40.6667 66.1383 40.8402 66.0526 40.4746C65.9104 40.581 65.7526 40.6888 65.6034 40.794ZM66.0294 42.9724C66.0119 42.4677 65.0821 42.0675 65.5015 42.997C65.5641 43.1347 66.0428 43.352 66.0294 42.9724ZM60.8796 56.9742C60.2427 57.5507 61.0492 56.9819 61.3093 56.9297C59.9494 58.3989 61.4446 56.745 61.9179 56.9488C61.9999 56.6819 62.1143 56.1419 61.6911 56.4346C61.5147 56.5568 61.6686 56.605 61.659 56.6134C61.3539 56.8589 61.2273 56.6594 60.8796 56.9742ZM64.3744 36.999C64.3962 37.024 64.5122 36.9021 64.5901 36.9768C64.6678 37.0517 64.6822 37.3104 64.7796 37.2831C64.8776 37.2554 64.7186 36.8082 64.586 36.7173C64.4528 36.6268 64.1788 36.7724 64.3744 36.999ZM65.1841 40.3287C65.2996 40.7576 65.8909 40.0562 65.8881 39.9629C65.8572 39.1434 65.3713 40.353 65.1841 40.3287ZM61.6182 54.8677C61.0815 55.802 61.9888 55.6526 62.6725 55.4279C62.6901 55.3227 62.7091 55.216 62.7263 55.112C62.7141 55.66 62.4881 56.4077 63.3465 55.1132C62.6858 55.6237 63.1143 55.0667 63.1031 55.0473C62.6768 54.4732 62.02 55.5635 61.6189 54.867C61.6187 54.8672 61.6185 54.8674 61.6182 54.8677ZM63.8485 35.6959C63.6289 35.3026 62.956 34.3366 62.9492 34.9642C63.2492 35.2085 63.5486 35.4516 63.8485 35.6959ZM47.514 61.6235C47.1291 61.4872 46.792 61.5265 46.3421 61.5867C46.7759 61.7987 46.5121 61.8568 46.3819 61.9342C46.1843 62.0508 46.6867 61.9889 46.69 62.006C46.7069 62.2499 46.3901 62.3222 47.1201 62.2377C46.9485 62.3418 46.7795 62.4463 46.6079 62.5498C47.166 62.5009 47.3142 62.6452 47.6883 62.8008C47.2944 62.3646 47.7778 62.6122 48.1622 62.3327C48.354 62.1928 47.7099 61.6933 47.5126 61.6236C47.5131 61.6236 47.5135 61.6235 47.514 61.6235ZM60.7818 55.541C60.7646 55.6766 60.7749 55.8278 60.7687 55.9698C60.6944 56.0544 60.619 56.1384 60.5447 56.223C60.4821 56.1781 60.4187 56.129 60.3565 56.0878C60.2346 56.1746 60.3494 56.2106 60.3246 56.2482C60.3243 56.2479 60.324 56.2476 60.3237 56.2473C59.9667 56.7857 59.7698 56.9535 59.2514 57.1276C59.4126 57.2949 59.5737 57.4621 59.7349 57.6293C59.7995 57.5363 59.8653 57.4429 59.9303 57.3503C59.8862 57.2195 59.8422 57.0885 59.7981 56.9577C59.9384 56.9181 60.0775 56.8789 60.2178 56.8393C60.2608 56.7356 60.3171 56.6157 60.3509 56.5224C61.1706 56.6341 60.0255 57.1251 60.2049 57.3264C60.3201 57.4559 61.16 56.6361 61.1987 56.4327C61.2041 56.4033 60.6861 56.2312 61.17 56.1146C61.2458 56.0966 61.9885 56.8332 61.7343 55.9022C61.6985 55.7699 61.0818 55.462 60.7818 55.541ZM57.4793 58.2552C58.4186 58.279 56.1742 59.4594 57.3129 59.1267C57.3102 59.556 57.3475 59.5145 57.7543 59.5014C57.7904 59.5006 57.6988 59.7062 57.719 59.7016C58.0268 59.614 58.2164 59.3204 58.4079 59.5158C58.4528 59.4523 58.4955 59.3931 58.5404 59.3296C58.1325 59.3648 58.3765 58.889 58.3665 58.5966C58.3622 58.4639 58.1937 58.5841 58.1878 58.47C58.186 58.428 58.4355 58.2749 58.3813 58.2017C58.2572 58.0379 57.9364 57.9639 57.6128 58.0667C57.6126 58.0666 57.6125 58.0665 57.6124 58.0663C57.5667 58.1289 57.5245 58.1921 57.4793 58.2552ZM64.4071 47.7612C64.7769 47.6489 64.8827 47.1988 65.0635 48.0635C65.1364 48.0207 65.2086 47.9767 65.2814 47.9339C65.275 47.7881 65.2687 47.6468 65.2628 47.4987C64.1734 47.0542 65.4028 46.2429 64.6302 46.7625C64.5462 46.8192 64.64 47.1651 64.412 46.8236C64.4118 46.8241 64.4116 46.8246 64.4114 46.825C64.4814 47.3018 64.6124 47.3619 64.4071 47.7612ZM64.665 50.9526C65.443 52.0523 65.0991 49.433 64.8926 49.8706C64.874 49.91 65.0412 51.0383 64.665 50.9526ZM63.9878 42.1284C63.9744 42.6214 64.3942 42.6541 64.5453 42.6043C64.697 42.5546 64.5438 42.2132 64.5676 42.1691C64.6464 42.0256 64.6984 42.33 64.8063 42.1437C64.8413 42.0819 64.991 41.2232 64.9729 41.1839C64.8725 40.9654 64.5261 41.2848 64.4865 41.2223C64.3565 41.0186 64.5366 40.742 64.3525 40.6829C63.9595 40.5556 64.372 41.0713 64.3787 41.1584C64.3974 41.4212 64.1762 41.3982 64.1318 41.595C64.0876 41.7916 64.1634 41.9202 64.1477 42.0937C64.1425 42.1514 63.9892 42.1034 63.9878 42.1284ZM64.8743 43.7586C64.5565 43.2437 64.2109 44.4974 64.2853 44.6462C64.5064 45.0837 65.026 44.0052 64.8743 43.7586ZM59.3693 57.8358C59.5486 57.3431 58.6292 57.9702 58.4677 58.2546C58.576 58.2832 59.3077 58.0053 59.3693 57.8358ZM61.8258 54.6693C61.5638 55.0214 62.3374 54.9968 62.5918 54.7403C62.5076 54.3478 62.411 54.5347 62.2313 54.6884C62.0516 54.8419 62.0302 54.3947 61.8258 54.6693ZM63.1905 37.363C63.2308 37.4474 64.2049 38.6293 63.8897 37.8153C63.8654 37.7533 63.3129 36.8547 63.2284 36.8101C63.0578 36.7207 63.0874 37.1449 63.1905 37.363ZM62.9715 52.8656C63.0112 53.2371 62.846 53.3907 63.2381 53.494C63.2383 53.4938 63.2386 53.4936 63.2388 53.4934C62.8948 53.9721 62.3846 53.4796 62.3051 53.5773C62.0271 53.919 62.6754 53.9948 62.5929 54.3044C62.9441 53.7497 63.0484 54.1215 63.4126 53.8005C63.4942 53.7284 63.6668 53.28 63.6248 53.1447C63.5827 53.0094 63.1593 52.8904 62.9715 52.8656ZM62.0988 35.5365C62.2453 36.0361 62.8887 36.2124 62.6146 35.5586C62.4812 35.2396 62.0092 35.2317 62.0988 35.5365ZM35.7741 60.605C35.836 60.7388 35.9004 60.8723 35.9682 61.0056C35.8308 61.0112 35.6933 61.017 35.5559 61.0229L35.7309 61.1093C35.6886 61.0782 35.6463 61.0472 35.6041 61.0162C35.6501 61.0435 35.6961 61.0708 35.7421 61.0983L35.5578 61.0073C35.6567 60.9935 35.7559 60.9798 35.8555 60.9662C35.7305 60.9351 35.6335 60.8829 35.5794 60.8276L35.8715 60.9718C35.8623 60.8776 35.9062 60.8201 36.0041 60.8422L35.6016 60.6436C35.6408 60.6245 35.6972 60.6107 35.7732 60.6049C35.7735 60.605 35.7738 60.605 35.7741 60.605ZM28.8865 51.8417C28.9909 51.673 28.5881 51.4016 28.563 51.4436C28.3762 51.76 28.7416 52.0757 28.8865 51.8417ZM58.0803 57.501C57.6226 57.8694 58.3342 58.0279 58.6214 57.8089C58.3827 57.8775 58.3401 57.2919 58.0803 57.501ZM30.5313 55.0664C30.5307 55.1405 30.5303 55.2149 30.5341 55.2936C30.4566 55.1104 30.4691 55.0533 30.5313 55.0664ZM62.8361 37.8319C62.8384 37.9326 63.1239 38.5298 63.2175 38.5801C63.4132 38.6837 63.4581 38.0704 63.2213 37.8547C63.1953 37.8306 62.834 37.7315 62.8368 37.8331C62.8365 37.8327 62.8363 37.8323 62.8361 37.8319ZM35.7756 60.1912C35.7722 60.196 35.7678 60.1995 35.7629 60.2017C35.7672 60.1984 35.7711 60.1943 35.7756 60.1912ZM29.742 39.5257C29.7319 39.526 29.7224 39.5248 29.7141 39.5215C29.7229 39.5231 29.7326 39.5234 29.742 39.5257ZM63.3143 41.6807C62.7351 41.9006 63.0431 42.4076 63.3295 42.0071C63.3446 41.9847 63.3131 41.734 63.3143 41.6807Z" fill="var(--stroke-0, black)"/>
<path id="Vector 20" d="M72.5182 28.3587C72.7531 27.5247 72.9582 26.6039 73.2704 25.7758L73.4943 27.7046C73.4565 27.6258 73.4201 27.5468 73.3853 27.4677C73.3377 27.3598 73.4875 27.2834 73.4904 27.2438C73.4988 27.1354 73.3 27.1866 73.2801 27.1224C73.1826 26.8108 73.0594 26.5377 72.9593 26.2346C72.8562 25.9224 73.385 25.7957 73.4398 25.6354C73.5475 25.322 73.0489 25.8212 72.8735 25.8224C72.7887 25.5954 72.7288 25.3519 72.6716 25.1085L74.3199 26.0651C74.3082 26.0616 74.2965 26.0581 74.2848 26.0547C74.2965 26.0425 74.3082 26.0305 74.3199 26.0185L72.712 25.0854C72.7809 25.1033 72.8489 25.1217 72.9151 25.1417C72.8944 25.0916 72.8871 25.0207 72.9141 24.9699L74.3199 25.7857C74.2989 25.7525 74.294 25.71 74.3199 25.659L73.0242 24.9071C73.0537 24.9056 73.0893 24.9101 73.1318 24.9224C73.1444 24.8891 73.1597 24.8552 73.1743 24.8213L74.3199 25.486C74.3025 25.4629 74.2849 25.44 74.2666 25.419C74.2552 25.6668 74.0613 25.6868 74.0436 25.8337C74.0259 25.9807 74.1349 25.9469 74.1342 25.9598C74.127 26.1428 73.6798 25.8926 73.6476 25.8722C73.5623 25.8179 73.6371 25.5106 73.5646 25.5304C73.4398 25.5642 73.5229 26.1894 73.3541 25.3583C73.2869 25.6283 73.281 25.488 73.196 25.4693C73.1848 25.467 73.1935 25.6233 73.1885 25.6274C73.0598 25.7435 73.1588 25.4527 73.1581 25.437C73.1464 25.1695 73.0082 25.2884 72.9791 25.2627C72.6139 24.9431 72.3463 24.7268 71.9609 24.6527C71.8776 24.6369 71.6239 24.7455 71.5432 24.7C71.4637 24.6551 71.5064 24.4623 71.4648 24.3698C71.3981 24.8335 71.3345 24.8846 71.1847 24.5791C71.1289 24.9174 71.1361 24.6445 71.0293 24.7122C70.9404 24.7682 70.7855 25.174 70.6876 24.8282C70.7998 24.8597 70.7882 24.6935 70.9145 24.5932C70.9565 24.56 71.3949 24.5529 71.3623 24.2071C71.3453 24.0269 71.2 24.1924 71.1944 24.1592C71.1617 23.9656 71.2428 23.7276 71.3147 23.811C71.2968 23.8501 71.2752 23.8897 71.2559 23.9288C71.4174 24.1709 71.3063 23.2412 71.429 24.0536C71.4442 24.1533 71.4383 24.2572 71.4634 24.3631C71.4685 24.3193 71.4379 24.2107 71.4643 24.1913C71.4911 24.1717 71.5422 24.3778 71.5498 24.2041C71.5612 23.9514 71.4498 24.051 71.4414 24.0362C71.4413 24.0378 71.4412 24.0393 71.4411 24.0408C71.367 23.9067 71.5218 23.8914 71.5292 23.8675C71.5771 23.7101 71.5444 23.5889 71.6162 23.4588C71.6572 23.3848 71.7616 23.4284 71.8001 23.4045C71.8384 23.38 71.7789 23.2605 71.8046 23.2348C71.8304 23.2092 71.8624 23.3 71.8927 23.2702C71.9056 23.2571 71.9049 23.1238 71.9112 23.1192C71.9784 23.0679 71.9343 23.3451 71.9952 23.3282C72.0347 23.317 72.1671 23.0585 72.0758 22.9815C72.1197 22.9547 72.1625 22.9351 72.2061 22.9141C72.1786 22.8744 72.1502 22.8475 72.1233 22.8009C72.2055 22.8644 72.2426 22.6363 72.2941 22.6193C72.3456 22.6024 72.3918 22.8761 72.4484 22.7426C72.5694 22.4585 72.2699 22.5898 72.2328 22.539C72.2183 22.5191 72.2739 22.3047 72.2825 22.2985C72.3205 22.2717 72.3655 22.4251 72.3949 22.4182C72.4999 22.3925 72.5642 22.1902 72.6643 22.1493C73.0051 22.0105 73.4279 21.8979 73.7509 21.8536C73.8711 21.8373 73.9435 22.0648 73.9974 22.0584C74.1237 22.0432 74.1392 21.8449 74.2493 21.8344C74.2717 21.8321 74.2954 21.8335 74.3199 21.8375L76.0874 22.2139L76.3422 23.0111C76.3969 23.158 76.3745 23.3876 76.4051 23.5062C76.4298 23.6012 76.639 23.5804 76.6553 23.5995C76.8849 23.8626 77.0878 24.2264 77.2306 24.4716C77.2978 24.5869 77.142 24.7489 77.1612 24.7697C77.2433 24.8592 77.3876 24.7402 77.4191 24.8328C77.4362 24.8827 77.2874 24.979 77.2848 24.9884C77.2645 25.0704 77.4712 24.9664 77.5014 25.004C77.5778 25.099 77.6206 25.2109 77.6544 25.3274L78.0963 26.7103L77.8644 27.137C77.7866 27.2713 77.693 27.4001 77.6377 27.5428C77.6305 27.5612 77.5328 27.5304 77.5342 27.5441C77.5427 27.6038 77.7046 27.6252 77.6995 27.6834C77.6897 27.8048 77.6294 27.9145 77.574 28.0298C77.5685 28.0412 77.4407 28.0092 77.4325 28.0367C77.4244 28.0641 77.5378 28.1204 77.5184 28.1616C77.4676 28.2692 77.2916 28.338 77.2484 28.4551C77.2414 28.4745 77.3862 28.544 77.3757 28.5732C77.3431 28.6646 77.1644 28.7614 77.1357 28.8396C77.0422 29.0977 77.0569 29.3658 76.9847 29.6137C76.9674 29.6719 76.8113 29.6817 76.7989 29.7109C76.7715 29.777 76.9198 29.765 76.8999 29.8343C76.7359 30.4 76.5075 30.9489 76.3488 31.5234C76.3476 31.5276 76.3465 31.5318 76.3454 31.5361L75.3985 33.2782L74.3199 33.0485C74.0884 33.0575 73.8099 33.1951 73.5879 33.1562C73.4939 33.1392 73.4768 32.9473 73.4103 32.9456C73.2917 32.9433 73.2702 33.1893 73.145 33.2138C73.0452 33.2331 72.9307 32.9875 72.8268 33.0027C72.7229 33.0178 72.6749 33.2564 72.5556 33.2849C72.4573 33.3083 72.32 33.2 72.213 33.2175C71.7021 33.3013 71.1954 33.3681 70.6876 33.3864L68.8942 33.0045L68.6139 32.2416C68.3506 31.8552 68.1216 31.4463 67.9453 30.9984C67.8155 30.6686 67.5807 30.36 67.5874 29.9305C67.5881 29.8901 67.8106 29.8111 67.7119 29.7452C67.6587 29.7099 67.4474 29.7469 67.3673 29.6383C66.9046 29.0098 66.8017 28.0952 66.332 27.4533L65.6569 25.6161L66.7173 25.0652C66.7335 25.0499 66.7494 25.0343 66.765 25.0185C67.6253 24.1461 67.5581 22.0777 69.9005 23.2562C70.0155 23.3142 70.3607 23.7777 70.441 23.9241C70.3442 23.8519 70.2351 23.7615 70.1276 23.6785C70.5567 24.2595 70.4425 24.1102 70.2925 24.1499C70.1999 24.1741 70.4495 24.3681 70.4694 24.4652C70.495 24.5907 70.504 25.0448 70.2422 24.6416C70.2814 24.7167 70.3194 24.7882 70.3577 24.8616C70.2463 25.0471 70.1693 25.2654 70.1024 25.498C70.091 25.5384 70.1851 25.6551 70.1728 25.6962C70.1405 25.8074 70.0193 25.7797 69.9529 25.854C69.9168 25.8943 70.0211 26.0328 69.96 26.0688C69.8988 26.1047 69.7514 25.9232 69.8391 26.1801C70.0737 26.367 69.724 26.3792 69.6593 26.456C69.6497 26.4669 69.7265 26.7451 69.659 26.7614C69.5917 26.7783 69.4112 26.7088 69.3971 26.8442C69.3906 26.9078 69.4998 27.0838 69.4693 27.124C69.4479 27.1522 69.2999 27.0377 69.2614 27.0596C69.2229 27.0815 69.2452 27.2571 69.2334 27.27C69.1915 27.3174 69.1631 27.1746 69.126 27.1967C68.9891 27.2804 68.8219 27.3586 68.7056 27.4796L68.9788 25.7868C69.0102 25.8257 69.0459 25.8606 69.0875 25.8895C69.1097 25.9051 69.2191 25.7953 69.2252 25.7954C69.4725 25.8402 69.2576 25.8685 69.1675 25.9794C69.0805 26.0866 69.3139 26.3235 69.5375 26.1855C69.2644 26.3693 69.5156 26.2965 69.5337 26.3072C69.6042 26.3491 69.3557 26.4887 69.4679 26.5016C69.5088 26.5065 69.6447 26.3612 69.6548 26.3879C69.6797 26.4537 69.4512 26.6709 69.474 26.7651C69.4794 26.7879 69.5997 26.7206 69.6168 26.7564C69.6338 26.7924 69.5794 27.0221 69.7844 26.8028C69.641 27.0116 69.7598 26.9607 69.8165 27.0628C69.8306 27.0889 69.6631 27.2393 69.7549 27.2559C69.786 27.2614 69.9666 27.1469 69.9851 27.1731C70.028 27.2326 69.8775 27.4089 69.9196 27.4922C69.9978 27.6483 70.2281 27.7219 70.2777 27.9047C70.2911 27.9545 70.1026 28.0587 70.1372 28.1215C70.1429 28.1304 70.3462 28.1043 70.3577 28.1555C70.3647 28.1863 70.3364 28.3865 70.3441 28.4185C70.3572 28.471 70.5381 28.368 70.5187 28.4135C70.4629 28.5449 70.1691 28.6527 70.5757 28.5126C70.3964 28.6635 70.4466 28.6997 70.2146 28.8675C70.4974 28.7288 70.2658 28.9258 70.3891 28.9246C70.5124 28.9235 71.054 28.6452 70.51 29.0062C70.5932 28.9895 70.7764 29.0264 70.7964 29.0395C70.8542 29.0788 70.6832 29.146 70.7295 29.1739C70.7375 29.1789 70.8372 29.1056 70.856 29.1583C70.8682 29.1929 71.0017 29.4191 70.9957 29.4414C70.9275 29.6957 70.8402 29.4242 70.7065 29.4626C70.7326 29.4381 70.7588 29.4137 70.7842 29.389C70.7914 29.2911 70.5794 29.4778 70.5437 29.5426C70.508 29.6074 70.6488 29.5978 70.5872 29.6718C70.5562 29.7089 70.2684 29.8792 70.2786 29.8198C70.2171 29.9153 70.0901 29.9177 70.0183 29.9854C69.9396 30.0596 70.027 30.2596 70.1835 30.1624C70.1674 30.1248 70.1353 30.0858 70.12 30.0473C70.3626 29.8316 71.3742 29.3859 71.0837 29.7443C70.8735 30.0039 70.5662 29.9876 70.9265 30.0618C70.9165 30.0218 70.9242 29.9778 70.9165 29.9406C71.1177 29.8094 70.9251 29.999 71.0056 29.9835C71.0448 29.9757 71.1417 29.8105 71.2304 29.8451C70.9749 30.0838 71.2942 29.9426 71.3565 30.0338C71.2883 30.0405 71.2204 30.047 71.1522 30.0536C71.0408 30.3442 70.7405 30.0213 70.8158 30.4025C70.7831 30.3715 70.7625 30.3332 70.7248 30.305C70.6295 30.3902 70.2984 30.5584 70.2424 30.6162C70.0954 30.7677 70.2394 30.7644 70.2566 30.8255C70.2644 30.8521 70.1711 30.8913 70.1718 30.8935C70.1819 30.9303 70.3014 30.8455 70.3264 30.8676C70.3577 30.8955 70.2993 31.0698 70.3231 31.0771C70.3841 31.0964 70.5853 30.8737 70.6061 30.8662C70.741 30.818 70.6767 30.9336 70.8298 30.8332C70.6417 30.7709 70.5437 30.3117 71.0123 30.4879C71.204 30.2373 71.5659 30.0469 71.6773 30.1636C71.7697 30.26 71.5865 30.2756 71.4707 30.429C71.4688 30.4316 71.4675 30.4373 71.467 30.4452L70.6876 30.0149C70.7287 30.0448 70.861 30.0944 70.8688 29.9845C70.8618 30.2769 70.9188 30.536 70.8805 30.8377C70.8749 30.8821 70.8031 30.8646 70.8282 31.1072C70.8407 31.2291 70.8767 31.4943 70.8709 31.6495C70.8857 31.5416 70.9011 31.4202 70.9161 31.3077C71.0238 31.2762 71.0391 31.3924 71.098 31.5937C71.0953 31.5097 71.0409 31.1567 71.1235 31.2641C71.1278 31.2705 71.1315 31.3971 71.1734 31.46C71.2583 31.586 71.276 31.6251 71.2109 31.9971C71.3866 31.7849 71.4245 32.1995 71.6047 32.0783C71.5689 31.6001 71.5055 31.7185 71.3405 31.8106C71.3333 31.6969 71.33 31.5843 71.3226 31.4694C71.5422 31.7272 71.4337 31.701 71.5581 31.4701C71.5886 31.4135 71.751 31.474 71.6968 31.1521C71.684 31.0763 71.5831 31.085 71.5947 30.9656C71.5969 30.9429 71.7196 30.885 71.7304 30.9159C71.8661 31.2967 71.6236 31.5622 71.9973 31.4234C72.0076 31.4193 72.0112 31.2801 72.0313 31.2607C72.0692 31.2246 72.0696 31.3858 72.1034 31.3486C72.1372 31.3113 72.1841 31.0944 72.2349 31.2949C72.3279 31.66 72.1086 31.87 72.011 31.6764C71.9714 32.1535 72.6689 32.164 72.7121 32.1231C72.9009 31.9453 72.5868 32.048 72.5706 31.9156C72.5639 31.8596 72.5672 31.1499 72.4878 31.6104C72.4643 31.7469 72.5625 31.9267 72.5039 32.002C72.4452 32.0772 72.4685 31.8682 72.4642 31.8537C72.4496 31.8037 72.3872 31.8812 72.3791 31.8515C72.2546 31.4018 72.266 30.7223 72.4311 31.7261C72.503 31.4992 72.338 31.1376 72.4273 30.9836C72.5359 30.7965 72.6152 31.1201 72.6288 31.1347C72.7925 31.3072 72.6038 30.8348 72.8037 30.9857C72.915 31.0697 72.6371 31.3002 72.8913 31.2693C73.104 31.243 72.9891 31.0785 73.0046 30.7047C73.0082 30.6172 73.1248 30.5099 72.9661 30.5484C72.9616 30.6458 72.9531 30.7742 72.9431 30.864C72.9041 30.7929 72.8392 30.3055 72.8185 30.2884C72.7176 30.2073 72.7224 30.4603 72.6629 30.1624C72.7054 30.4883 72.6362 30.2919 72.6102 30.3607C72.5138 30.6144 72.6402 30.7087 72.4237 30.3827C72.4519 30.5355 72.4775 30.6855 72.5048 30.8377C72.4788 30.843 72.4528 30.8484 72.4269 30.8536C72.3881 30.5171 72.2502 30.5601 72.3751 30.2213C72.2249 30.1251 72.1641 30.1984 72.1312 30.4602C72.1249 30.5102 72.1024 30.5302 72.0758 30.535C72.0809 30.6086 72.0873 30.8361 72.0831 30.864C72.0457 31.1093 71.9877 30.6855 72.0075 30.5237C71.989 30.516 71.9743 30.5069 71.9691 30.503C71.9362 30.4778 72.0006 30.3315 71.974 30.2814C71.9652 30.2651 71.8726 30.2969 71.8708 30.2374C71.8597 29.8562 72.0121 30.1313 71.706 29.9097C71.6986 30.2567 71.8408 30.1804 71.8043 30.549C71.7651 30.945 71.6851 30.4138 71.6677 30.8997C71.6612 30.8198 71.6583 30.7532 71.6527 30.6623C71.5289 30.8739 71.5273 30.4693 71.4894 30.38C71.416 30.2056 71.0783 30.2318 71.3815 30.5823C71.3372 30.6173 71.2919 30.6335 71.2478 30.6644C71.2377 29.939 71.2646 30.2277 71.0521 30.1169C71.0053 30.0924 70.99 29.7734 70.9441 30.1523C70.9504 29.7806 70.812 30.0052 70.799 29.96C70.7162 29.6667 71.0238 29.2583 71.0633 29.9155C71.1152 29.6596 71.115 29.9979 71.173 29.953C71.2567 29.8883 71.2684 29.8224 71.3678 30.072C71.4657 29.7203 70.9847 29.9173 71.2763 29.4507C71.5679 28.9841 73.2661 28.7239 73.6623 28.6539C73.9148 28.6094 74.1252 28.5703 74.3199 28.5392L72.0219 30.255C72.069 29.8948 72.127 29.5933 72.2588 29.1965C72.2785 29.136 72.3826 28.6661 72.7439 28.8773C72.7958 28.9076 72.8853 29.1495 73.2415 29.0703C73.0507 29.0513 72.963 28.9167 72.9465 28.9027C72.5717 28.5826 72.433 28.6625 72.5182 28.3587ZM76.2594 28.4916C76.0535 28.8601 76.4 28.6473 76.964 28.9036C76.9807 28.8534 76.9973 28.8034 77.014 28.7532C76.9731 28.7556 76.9324 28.7578 76.8916 28.7602C76.8916 28.7603 76.8915 28.7603 76.8915 28.7604C76.6808 28.6709 76.4701 28.5812 76.2594 28.4916ZM72.005 22.5906C72.021 22.5098 72.0369 22.4289 72.0543 22.3498C72.1087 22.3749 72.1629 22.3995 72.2173 22.4246C72.2109 22.4794 72.2046 22.5349 72.1981 22.5897C72.1337 22.5874 72.0696 22.5848 72.005 22.5906ZM71.9534 31.7652C71.8764 31.5406 71.8833 31.9413 71.781 31.7588C71.7935 32.0544 71.8075 32.3437 71.8207 32.6364C71.8986 32.5927 71.9163 32.4803 72.0009 32.5525C71.991 32.4575 71.9809 32.3619 71.9713 32.2663C71.9572 32.2867 71.9422 32.3099 71.9286 32.3279C71.9069 32.062 72.0421 32.0223 71.9537 31.7646C71.9536 31.7648 71.9535 31.765 71.9534 31.7652ZM71.164 31.8842C71.1226 31.8457 70.9585 31.701 70.9361 31.8235C70.8602 32.2387 71.3232 31.9752 70.9819 32.3444C70.9835 32.4027 70.9819 32.4597 70.9819 32.5174C71.0442 32.5378 71.1063 32.5554 71.169 32.5717C71.1656 32.342 71.1678 32.1151 71.164 31.8842ZM75.8609 29.927C75.8121 29.979 75.9132 30.3255 76.1934 30.3053C76.2755 30.2993 75.9533 30.0625 75.9836 30.0177C76.0032 29.9887 76.1903 30.0832 76.1363 29.9985C76.0483 29.9755 75.9512 29.9486 75.8614 29.9273C75.8612 29.9272 75.8611 29.9271 75.8609 29.927ZM74.744 29.4715C74.7605 29.5451 74.7862 29.6223 74.8048 29.697C75.0439 29.7173 74.9262 29.5832 75.2449 29.6718C75.2637 29.6963 75.2826 29.7206 75.3014 29.7451C75.2282 29.7378 75.1549 29.7304 75.0817 29.7229C75.2378 29.8285 75.3331 29.8208 75.2533 29.9076C75.7507 29.9882 76.0113 30.0531 75.578 29.7355C75.8283 29.8454 76.6847 30.0655 76.1078 29.7897C76.0008 29.7384 75.9033 29.7914 75.8852 29.787C75.6593 29.7326 75.5297 29.6488 75.3158 29.5989C75.2191 29.5763 75.2069 29.6227 75.0729 29.5905C75.0076 29.5746 74.8368 29.4765 74.744 29.4715ZM75.9096 29.68C76.0385 29.7395 76.3781 29.7675 76.3305 29.6903C76.2566 29.5701 75.9102 29.6225 75.9096 29.68ZM72.0046 22.5909C72.0047 22.5908 72.0049 22.5907 72.005 22.5906C72.0049 22.5909 72.0049 22.5912 72.0048 22.5915C72.0047 22.5913 72.0047 22.5911 72.0046 22.5909ZM71.3777 32.0468C71.3288 32.1663 71.2566 32.1489 71.2619 32.3389C71.2382 32.3016 71.2142 32.2648 71.1905 32.2275C71.1907 32.2846 71.1911 32.3419 71.1914 32.3984C71.2628 32.434 71.334 32.4697 71.4054 32.5058C71.3965 32.353 71.3882 32.1996 71.3777 32.0468ZM69.8131 31.3824C69.7815 31.2961 69.6029 31.4976 69.4868 31.5474C69.3707 31.5972 69.414 31.4754 69.2675 31.5788C69.2897 31.6272 69.3131 31.6776 69.3362 31.7263C69.4935 31.6106 69.6562 31.4966 69.813 31.3822C69.8131 31.3823 69.8131 31.3823 69.8131 31.3824ZM76.9321 26.938C76.8611 26.9805 76.679 26.9007 76.8663 27.0816C76.8663 27.0815 76.8664 27.0814 76.8664 27.0813C76.979 27.043 77.0888 26.9914 77.1339 26.9205L77.2896 26.634L76.9929 25.7054C76.9795 25.6512 76.9403 25.6118 76.8611 25.5989C76.7593 25.7208 76.8201 25.7388 76.8527 25.7855L77.1187 26.6178L76.9791 26.8747C76.9746 26.8969 76.9637 26.919 76.9321 26.938ZM72.1664 32.3471C72.1921 32.1909 72.0724 32.0603 72.0459 32.2055C72.0032 32.4406 72.1272 32.5845 72.1664 32.3471ZM74.4436 24.4142C73.9798 24.5725 73.598 24.9929 73.8917 25.0368C73.9174 25.0405 73.9913 24.8615 74.0903 24.8454C74.1001 24.8439 74.1225 24.9062 74.1886 24.887C74.2548 24.8677 74.3816 24.7758 74.4514 24.7663C74.5735 24.7499 74.4418 24.9458 74.5892 24.9016C74.6089 24.8956 74.7574 24.7359 74.7623 24.7284C74.8385 24.608 74.5703 24.6872 74.5636 24.6791C74.5292 24.6377 74.7185 24.5388 74.7553 24.5022C74.8247 24.4335 74.7207 24.4416 74.7252 24.4354C74.8477 24.2726 74.8926 24.459 74.9717 24.4423C75.1852 24.3975 75.3221 24.2479 75.5035 24.3291C75.5206 24.3369 75.6003 24.5016 75.6936 24.1833C76.3501 24.3283 75.827 23.8457 75.6953 23.8362C75.6343 23.8319 75.4832 23.9775 75.3935 24.005C75.1884 24.068 75.1166 24.0168 74.8639 24.1694C74.3329 24.4906 74.7381 24.3804 74.6835 24.4951C74.5627 24.5554 74.4472 24.618 74.3257 24.6712C74.4904 24.6021 74.4783 24.4021 74.4446 24.4136C74.4443 24.4138 74.4439 24.414 74.4436 24.4142ZM75.6263 25.0551C75.5141 25.2361 75.8506 25.0356 75.7022 25.2274C76.0482 25.124 75.9475 24.9954 75.9554 24.9692C75.9897 24.8506 76.3227 24.6626 76.1769 24.6446C75.9954 24.7831 75.8091 24.9179 75.6263 25.0551ZM75.3287 24.209C75.5345 24.1695 75.4714 24.0657 75.5018 24.0427C75.8245 23.7965 75.937 24.151 75.3287 24.209ZM74.9931 30.082C74.9705 30.1113 75.1587 30.1443 75.2039 30.1893C75.2494 30.2346 75.0641 30.2882 75.1781 30.3193C75.2924 30.3504 75.641 30.2547 75.6503 30.4572C75.7159 30.4698 75.7628 30.486 75.8213 30.5001C75.8379 30.4501 75.8558 30.4 75.8724 30.35C75.6808 30.3234 75.4794 30.2946 75.2943 30.2687C75.1567 30.1971 75.3487 30.2367 75.3491 30.2352C75.3489 30.2351 75.3487 30.2351 75.3485 30.235C75.3495 30.1778 75.0437 30.0163 74.9931 30.082ZM76.3355 27.6493C75.8827 27.5044 76.3686 27.7332 76.4156 27.7819C76.4624 27.8306 76.2807 27.8245 76.4817 27.8661C76.6324 27.8545 76.3861 27.6655 76.335 27.6492C76.3352 27.6492 76.3354 27.6493 76.3355 27.6493ZM75.9005 25.5332C76.0429 25.5498 76.1435 25.4767 76.0727 25.637C76.1704 25.5765 76.2704 25.5148 76.3666 25.4551C76.3276 25.3822 76.0409 25.5528 76.1099 25.4032C76.1214 25.3786 76.3693 25.2756 76.2599 25.2567C76.1466 25.3451 76.02 25.4415 75.9005 25.5332ZM76.4795 25.6877C76.4158 25.6117 75.5701 26.0057 76.0235 25.9538C76.0911 25.9458 76.5276 25.7448 76.4795 25.6877ZM75.2264 29.2119C75.1536 29.3635 75.351 29.2252 75.5003 29.2243C75.5 29.6275 75.4752 29.1714 75.9418 29.2694C75.8255 29.1857 75.5539 29.013 75.4465 29.0836C75.4019 29.1131 75.5418 29.139 75.5405 29.1412C75.4855 29.2036 75.2662 29.129 75.2264 29.2119ZM75.519 24.9135C75.5282 24.9154 75.6626 24.8273 75.7004 24.8287C75.7379 24.8302 75.6628 24.9251 75.7505 24.8802C75.8388 24.8349 75.8606 24.7181 75.7841 24.7298C75.707 24.7418 75.4372 24.8949 75.519 24.9135ZM75.4918 25.6631C75.6332 25.6778 76.0793 25.2666 76.068 25.2523C75.9625 25.13 75.6567 25.5743 75.4918 25.6631ZM74.3731 28.5567C74.6042 28.834 75.1462 28.8419 75.4816 28.8105C75.4254 28.7765 75.3692 28.7422 75.3135 28.7086C75.6623 28.8905 75.9908 29.1253 75.7514 28.7484C75.6187 28.8766 75.5574 28.7182 75.5369 28.711C74.8619 28.4926 75.1101 28.8142 74.3731 28.5566C74.3731 28.5566 74.3731 28.5567 74.3731 28.5567ZM75.5319 24.5953C75.4866 24.5208 75.2678 24.3849 75.0519 24.63C75.2119 24.6185 75.3719 24.6067 75.5319 24.5953ZM73.3385 30.3525C73.2673 30.1758 73.2016 30.1788 73.1139 30.1905C73.1929 30.4476 73.141 30.4772 73.1143 30.5402C73.0739 30.635 73.1718 30.6272 73.1721 30.6446C73.1703 30.8889 73.1078 30.9269 73.25 30.921C73.2149 31.0062 73.1802 31.0919 73.145 31.1765C73.2534 31.1876 73.2789 31.347 73.3476 31.5418C73.2809 31.0659 73.3688 31.3638 73.4485 31.127C73.4883 31.0085 73.3747 30.4429 73.3382 30.3525C73.3383 30.3525 73.3384 30.3525 73.3385 30.3525ZM74.2227 28.728C74.299 28.7721 74.4049 28.8231 74.4932 28.8701C74.4959 28.8935 74.4976 28.9167 74.5004 28.9402C74.4269 28.9213 74.3503 28.9009 74.2795 28.8832C74.2502 28.9044 74.3546 28.9236 74.3617 28.9346C74.3613 28.9345 74.3609 28.9344 74.3605 28.9343C74.46 29.091 74.4307 29.1344 74.1789 29.1595C74.4015 29.2255 74.6242 29.2914 74.8469 29.3574C74.8318 29.3305 74.8172 29.3036 74.8026 29.2769C74.6862 29.2305 74.5698 29.184 74.4534 29.1376C74.5264 29.1333 74.5989 29.1291 74.672 29.1248C74.6346 29.093 74.5961 29.0566 74.5591 29.0277C75.2097 29.117 74.7228 29.2079 74.9806 29.2863C75.1463 29.3368 75.2036 29.117 75.0982 29.0517C75.0828 29.0422 74.6054 28.9519 74.8704 28.9438C74.9122 28.9426 75.9161 29.2353 75.1297 28.9089C75.0181 28.8626 74.3826 28.7207 74.2227 28.728ZM73.6652 29.4226C74.3428 29.4903 73.5308 29.741 74.1163 29.7025C74.3945 29.8454 74.3937 29.8339 74.6719 29.8554C74.6969 29.8575 74.7664 29.9202 74.7776 29.9199C74.9374 29.9103 74.8796 29.8245 75.142 29.9018C75.1322 29.8835 75.1238 29.8665 75.114 29.8482C74.8494 29.8339 74.7111 29.6909 74.5133 29.5928C74.4237 29.5483 74.3833 29.5777 74.3047 29.5393C74.2761 29.5252 74.3521 29.49 74.2662 29.4622C74.0718 29.3996 73.7974 29.3546 73.6364 29.3683C73.6362 29.3683 73.636 29.3682 73.6358 29.3681C73.6445 29.3861 73.656 29.4045 73.6652 29.4226ZM74.973 26.9648C75.3337 27.049 75.46 26.9956 75.5858 27.2074C75.658 27.2201 75.7296 27.2325 75.8018 27.2452C75.8037 27.2164 75.8054 27.1883 75.8079 27.1592C74.7878 26.7673 76.0112 26.9661 75.2418 26.8429C75.1581 26.8296 75.2291 26.9204 75.0292 26.7923C75.029 26.7923 75.0288 26.7923 75.0286 26.7924C75.0695 26.9007 75.1918 26.9491 74.973 26.9648ZM75.0449 27.63C75.7304 28.055 75.5446 27.4715 75.3226 27.494C75.3026 27.496 75.4009 27.7528 75.0449 27.63ZM74.6258 26.5589C74.6615 26.6483 75.0291 26.4456 75.1556 26.3622C75.2825 26.2786 75.1167 26.2973 75.1332 26.278C75.1878 26.2149 75.2622 26.2402 75.338 26.1554C75.3625 26.1276 75.41 25.9091 75.3905 25.9115C75.2824 25.9246 75.0123 26.1501 74.9718 26.1593C74.8394 26.1896 74.9693 26.0537 74.8037 26.1352C74.4503 26.3088 74.858 26.1907 74.8722 26.202C74.9136 26.2369 74.7193 26.3428 74.6997 26.3978C74.6802 26.4528 74.7583 26.4368 74.7614 26.4737C74.7624 26.486 74.6247 26.554 74.6258 26.5589ZM75.552 26.3929C75.3088 26.4461 75.147 26.673 75.1137 26.7792L75.0588 26.3057C75.0251 26.3224 75.0115 26.3401 75.0275 26.3524C75.1325 26.4329 75.3532 26.452 75.5042 26.4377L75.5171 26.5487C75.5913 26.4549 75.6205 26.3779 75.552 26.3929ZM74.7239 29.403C74.5289 29.2502 74.2898 29.4007 74.3615 29.4853C74.4565 29.5017 74.791 29.4556 74.7239 29.403ZM74.39 28.5039C74.435 28.6045 74.9642 28.6455 74.9762 28.5762C74.6608 28.44 74.7147 28.4962 74.6883 28.536C74.6618 28.5757 74.355 28.4253 74.39 28.5039ZM74.4419 25.4725C74.4462 25.4908 74.8355 25.6038 74.8542 25.4004C74.8554 25.385 74.7112 25.2326 74.658 25.2452C74.5504 25.2709 74.432 25.4245 74.4419 25.4725ZM74.021 27.9755C74.2913 28.1019 74.2751 28.1426 74.6189 28.2019C74.6189 28.2019 74.6189 28.2018 74.6189 28.2017C74.6888 28.3394 74.0078 28.1429 74.0155 28.1704C74.0425 28.2666 74.5489 28.333 74.6926 28.431C74.5784 28.2684 74.8945 28.399 74.9418 28.3152C74.9523 28.2963 74.7814 28.1578 74.6636 28.1101C74.5457 28.0623 74.1696 27.9957 74.021 27.9755ZM74.174 25.1518C74.1246 25.2932 74.5844 25.1341 74.5826 24.9781C74.582 24.9018 74.204 25.0655 74.174 25.1518ZM71.0222 30.2008C71.0372 30.3262 71.0527 30.4511 71.0688 30.5753C71.0326 30.6056 70.9963 30.6365 70.96 30.6674C70.9887 30.6278 71.0174 30.5887 71.0463 30.5496C70.9782 30.5059 70.947 30.2778 71.0221 30.2008C71.0221 30.2008 71.0222 30.2008 71.0222 30.2008ZM70.2774 28.7256C70.3634 28.6355 70.015 28.7839 69.9944 28.8059C69.841 28.9702 70.1583 28.8505 70.2774 28.7256ZM73.5969 29.2095C73.5146 29.3032 74.1195 29.4012 74.1792 29.3465C74.0556 29.3542 73.6436 29.1563 73.5969 29.2095ZM70.7065 29.4626C70.6677 29.4991 70.6289 29.5356 70.5907 29.5731C70.6331 29.5041 70.6712 29.4728 70.7065 29.4626ZM73.9988 25.779C73.9669 25.8172 73.9969 25.9473 74.0556 25.9336C74.1787 25.9045 74.4206 25.6515 74.3019 25.6518C74.289 25.6516 74.0308 25.7409 73.999 25.7792C73.9989 25.7792 73.9989 25.7791 73.9988 25.779ZM70.8691 29.968C70.8693 29.9738 70.8692 29.9793 70.8688 29.9845C70.8689 29.979 70.8689 29.9734 70.8691 29.968ZM69.5605 26.1699C69.5529 26.1755 69.5452 26.1808 69.5375 26.1855C69.5448 26.1806 69.5524 26.1752 69.5605 26.1699ZM73.9981 26.8178C73.5163 27.1421 73.8325 27.0745 74.0427 26.8651C74.0536 26.8539 74.0022 26.8274 73.9981 26.8178Z" fill="var(--stroke-0, black)"/>
</g>
</svg>
